<svg xmlns="http://www.w3.org/2000/svg" viewBox="0 0 462.619 462.619"><defs><style>.a,.d,.f,.h{fill:none;stroke-miterlimit:10;stroke-width:0.5px;}.a{stroke:#c8a57d;}.b{fill:#c8a57d;}.c,.k{fill:#a569bf;}.d{stroke:#a569bf;}.e{fill:#a3bda2;}.f{stroke:#a3bda2;}.g{fill:#e05073;}.h{stroke:#e05073;}.i,.j{fill:#fff;}.j,.k{font-size:5.836px;font-family:TrebuchetMS, Trebuchet MS;}</style></defs><title>flowchart</title><line class="a" x1="190.99" y1="19.099" x2="190.99" y2="36.732"/><polygon class="b" points="188.496 36.003 190.989 40.32 193.482 36.003 188.496 36.003"/><rect class="b" x="161.28" width="59.419" height="19.099" rx="9.549"/><rect class="c" x="172.024" y="52.205" width="42.016" height="42.016" transform="translate(2.726 154.754) rotate(-45)"/><line class="d" x1="220.699" y1="70.029" x2="238.332" y2="70.029"/><polygon class="c" points="237.603 72.523 241.92 70.03 237.603 67.537 237.603 72.523"/><rect class="b" x="241.92" y="60.48" width="59.419" height="19.099" rx="9.549"/><line class="d" x1="161.28" y1="70.029" x2="143.647" y2="70.029"/><polygon class="c" points="144.376 67.536 140.059 70.029 144.376 72.522 144.376 67.536"/><rect class="e" x="80.64" y="60.48" width="59.419" height="19.099"/><line class="f" x1="110.349" y1="79.579" x2="110.349" y2="97.212"/><polygon class="e" points="107.856 96.483 110.349 100.8 112.842 96.483 107.856 96.483"/><rect class="c" x="91.384" y="112.685" width="42.016" height="42.016" transform="translate(-63.659 115.447) rotate(-45)"/><line class="d" x1="140.059" y1="130.51" x2="157.692" y2="130.51"/><polygon class="c" points="156.963 133.003 161.28 130.51 156.963 128.017 156.963 133.003"/><line class="f" x1="220.699" y1="130.51" x2="238.332" y2="130.51"/><polygon class="e" points="237.603 133.003 241.92 130.51 237.603 128.017 237.603 133.003"/><rect class="e" x="161.28" y="120.96" width="59.419" height="19.099"/><rect class="e" x="241.92" y="120.96" width="59.419" height="19.099"/><line class="f" x1="301.339" y1="130.51" x2="318.972" y2="130.51"/><polygon class="e" points="318.243 133.003 322.56 130.51 318.243 128.017 318.243 133.003"/><polygon class="g" points="379.42 140.059 320.001 140.059 325.119 120.96 384.538 120.96 379.42 140.059"/><rect class="c" x="413.944" y="112.685" width="42.016" height="42.016" transform="translate(30.817 343.532) rotate(-45)"/><line class="h" x1="381.979" y1="130.51" x2="399.612" y2="130.51"/><polygon class="g" points="398.883 133.003 403.2 130.51 398.883 128.017 398.883 133.003"/><line class="d" x1="432.91" y1="160.219" x2="432.91" y2="177.852"/><polygon class="c" points="430.416 177.123 432.909 181.44 435.402 177.123 430.416 177.123"/><rect class="b" x="403.2" y="181.44" width="59.419" height="19.099" rx="9.549"/><line class="f" x1="271.63" y1="140.059" x2="271.63" y2="157.692"/><polygon class="e" points="269.136 156.963 271.629 161.28 274.122 156.963 269.136 156.963"/><rect class="e" x="241.92" y="161.28" width="59.419" height="19.099"/><line class="f" x1="301.339" y1="170.83" x2="318.972" y2="170.83"/><polygon class="e" points="318.243 173.323 322.56 170.83 318.243 168.337 318.243 173.323"/><rect class="e" x="322.56" y="161.28" width="59.419" height="19.099"/><line class="f" x1="352.27" y1="180.379" x2="352.27" y2="198.012"/><polygon class="e" points="349.776 197.283 352.269 201.6 354.762 197.283 349.776 197.283"/><rect class="c" x="333.304" y="213.485" width="42.016" height="42.016" transform="translate(-64.079 316.034) rotate(-45)"/><line class="d" x1="381.979" y1="231.31" x2="399.612" y2="231.31"/><polygon class="c" points="398.883 233.803 403.2 231.31 398.883 228.817 398.883 233.803"/><rect class="e" x="403.2" y="221.76" width="59.419" height="19.099"/><line class="f" x1="432.91" y1="240.859" x2="432.91" y2="258.492"/><polygon class="e" points="430.416 257.763 432.909 262.08 435.402 257.763 430.416 257.763"/><rect class="b" x="403.2" y="262.08" width="59.419" height="19.099" rx="9.549"/><line class="d" x1="352.27" y1="261.019" x2="352.27" y2="278.652"/><polygon class="c" points="349.776 277.923 352.269 282.24 354.762 277.923 349.776 277.923"/><rect class="e" x="322.56" y="282.24" width="59.419" height="19.099"/><line class="f" x1="352.27" y1="301.339" x2="352.27" y2="318.972"/><polygon class="e" points="349.776 318.243 352.269 322.56 354.762 318.243 349.776 318.243"/><rect class="e" x="322.56" y="322.56" width="59.419" height="19.099"/><line class="f" x1="352.27" y1="341.659" x2="352.27" y2="359.292"/><polygon class="e" points="349.776 358.563 352.269 362.88 354.762 358.563 349.776 358.563"/><rect class="e" x="322.56" y="362.88" width="59.419" height="19.099"/><line class="f" x1="352.27" y1="381.979" x2="352.27" y2="399.612"/><polygon class="e" points="349.776 398.883 352.269 403.2 354.762 398.883 349.776 398.883"/><rect class="e" x="322.56" y="403.2" width="59.419" height="19.099"/><line class="f" x1="381.979" y1="412.75" x2="399.612" y2="412.75"/><polygon class="e" points="398.883 415.243 403.2 412.75 398.883 410.257 398.883 415.243"/><rect class="e" x="403.2" y="403.2" width="59.419" height="19.099"/><line class="f" x1="352.27" y1="422.299" x2="352.27" y2="439.932"/><polygon class="e" points="349.776 439.203 352.269 443.52 354.762 439.203 349.776 439.203"/><rect class="b" x="322.56" y="443.52" width="59.419" height="19.099" rx="9.549"/><line class="d" x1="110.349" y1="160.219" x2="110.349" y2="177.852"/><polygon class="c" points="107.856 177.123 110.349 181.44 112.842 177.123 107.856 177.123"/><rect class="c" x="91.384" y="193.325" width="42.016" height="42.016" transform="translate(-120.68 139.066) rotate(-45)"/><line class="d" x1="63.007" y1="211.15" x2="80.64" y2="211.15"/><polygon class="c" points="63.736 213.643 59.419 211.15 63.736 208.657 63.736 213.643"/><line class="d" x1="110.349" y1="240.859" x2="110.349" y2="258.492"/><polygon class="c" points="107.856 257.763 110.349 262.08 112.842 257.763 107.856 257.763"/><rect class="e" y="201.6" width="59.419" height="19.099"/><rect class="e" x="80.64" y="262.08" width="59.419" height="19.099"/><line class="f" x1="29.709" y1="220.699" x2="29.709" y2="291.79"/><line class="f" x1="190.99" y1="291.79" x2="29.709" y2="291.79"/><line class="f" x1="190.99" y1="291.79" x2="190.99" y2="143.647"/><polygon class="e" points="193.483 144.376 190.99 140.059 188.497 144.376 193.483 144.376"/><line class="f" x1="140.059" y1="271.63" x2="190.876" y2="271.63"/><rect class="i" x="189.13" y="269.979" width="3.301" height="3.301"/><path class="e" d="M194.723,276.713h-3.8v-3.8h3.8Zm-3.3-.5h2.8v-2.8h-2.8Z" transform="translate(-2.042 -3.183)"/><text class="j" transform="translate(176.494 7.83) scale(0.876 1)"><tspan xml:space="preserve">script begins  </tspan><tspan x="3.71" y="7.003">execution</tspan></text><text class="j" transform="translate(86.541 68.31) scale(0.884 1)">search player inv for <tspan x="5.685" y="7.003">lz-marking mags</tspan></text><text class="j" transform="translate(249.826 68.31) scale(0.876 1)"><tspan xml:space="preserve">script ends w/ hint  </tspan><tspan x="4.691" y="7.003">&quot;not supported&quot;</tspan></text><text class="j" transform="translate(169.677 66.843)">player is civilian <tspan x="3.333" y="7.003">or faction not </tspan><tspan x="7.141" y="14.006">supported?</tspan></text><text class="j" transform="translate(95.692 127.323)">compatible <tspan x="-3.495" y="7.003">mag(s) found?</tspan></text><text class="j" transform="translate(165.524 128.79) scale(1.009 1)">player uses compat <tspan x="5.652" y="7.003">mag to mark lz</tspan></text><text class="j" transform="translate(253.635 128.79) scale(1.009 1)">faction-based <tspan x="-5.729" y="7.003">helicopter spawns</tspan></text><text class="j" transform="translate(331.776 128.79)">monitor vehicle <tspan x="5.089" y="7.003">status (evh)</tspan></text><text class="j" transform="translate(246.768 169.11) scale(1.009 1)">helicopter lands at <tspan x="4.153" y="7.003">extraction zone</tspan></text><text class="j" transform="translate(411.106 189.27) scale(0.876 1)"><tspan xml:space="preserve">script ends w/ hint  </tspan><tspan x="4.355" y="7.003">&quot;heli destroyed&quot;</tspan></text><text class="j" transform="translate(409.034 229.59) scale(1.009 1)">helicopter returns <tspan x="-2.25" y="7.003">to base (spawn pos)</tspan></text><text class="j" transform="translate(411.106 269.91) scale(0.876 1)"><tspan xml:space="preserve">script ends w/ hint  </tspan><tspan x="-1.96" y="7.003">&quot;missed extract heli&quot;</tspan></text><text class="j" transform="translate(326.222 290.07)">player marks a drop <tspan x="4.374" y="7.003">off point on map</tspan></text><text class="j" transform="translate(327.63 330.39)">helicopter lands at <tspan x="2.052" y="7.003">the drop off zone</tspan></text><text class="j" transform="translate(328.609 370.71)">player disembarks <tspan x="5.042" y="7.003">the helicopter</tspan></text><text class="j" transform="translate(328.607 411.031)">helicopter returns <tspan x="-2.25" y="7.003">to base (spawn pos)</tspan></text><text class="j" transform="translate(413.234 411.031)">script becomes <tspan x="-4.751" y="7.003">available for reuse</tspan></text><text class="j" transform="translate(334.351 451.35)">script finishes <tspan x="5.086" y="7.003">execution</tspan></text><text class="j" transform="translate(85.629 269.91)">add smoke nade to <tspan x="1.674" y="7.003">player&apos;s inventory</tspan></text><text class="j" transform="translate(8.835 209.43)"><tspan xml:space="preserve">add IR strobe to  </tspan><tspan x="-2.173" y="7.003">player&apos;s inventory</tspan></text><text class="j" transform="translate(89.531 210.616)">is it day time or <tspan x="6.223" y="7.003">night time?</tspan></text><text class="j" transform="translate(339.45 226.826)">time&apos;s up? <tspan x="-8.515" y="7.003">(missed extract)</tspan></text><text class="j" transform="translate(416.621 126.384)">is helicopter <tspan x="-2.452" y="7.003">immoblized or </tspan><tspan x="2.342" y="14.006">destroyed?</tspan></text><text class="k" transform="translate(227.098 67.377)">yes</text><text class="k" transform="translate(147.509 67.377)">no</text><text class="k" transform="translate(146.458 127.857)">yes</text><text class="k" transform="translate(112.495 170.829)">no</text><text class="k" transform="translate(65.388 208.497)">night</text><text class="k" transform="translate(112.649 251.47)">day</text><text class="k" transform="translate(435.064 170.829)">yes</text><text class="k" transform="translate(388.378 228.657)">yes</text><text class="k" transform="translate(354.415 271.63)">no</text><text class="j" transform="translate(342.064 169.109) scale(1.009 1)"><tspan xml:space="preserve">dust-off    </tspan><tspan x="-13.367" y="7.003">countdown begins</tspan></text></svg>