<?xml version="1.0" encoding="UTF-8"?><svg id="Layer_1" xmlns="http://www.w3.org/2000/svg" viewBox="0 0 462.62 462.62"><g><line x1="190.99" y1="19.1" x2="190.99" y2="36.73" style="fill:none; stroke:#d5b99b; stroke-miterlimit:10; stroke-width:.5px;"/><polygon points="188.5 36 190.99 40.32 193.48 36 188.5 36" style="fill:#d5b99b;"/></g><rect x="161.28" y="0" width="59.42" height="19.1" rx="9.55" ry="9.55" style="fill:#d5b99b;"/><rect x="169.98" y="49.02" width="42.02" height="42.02" transform="translate(6.42 155.56) rotate(-45)" style="fill:#c0bec1;"/><g><line x1="220.7" y1="70.03" x2="238.33" y2="70.03" style="fill:none; stroke:#c0bec1; stroke-miterlimit:10; stroke-width:.5px;"/><polygon points="237.6 72.52 241.92 70.03 237.6 67.54 237.6 72.52" style="fill:#c0bec1;"/></g><rect x="241.92" y="60.48" width="59.42" height="19.1" rx="9.55" ry="9.55" style="fill:#d5b99b;"/><g><line x1="161.28" y1="70.03" x2="143.65" y2="70.03" style="fill:none; stroke:#c0bec1; stroke-miterlimit:10; stroke-width:.5px;"/><polygon points="144.38 67.54 140.06 70.03 144.38 72.52 144.38 67.54" style="fill:#c0bec1;"/></g><rect x="80.64" y="60.48" width="59.42" height="19.1" style="fill:#a8bbc4;"/><g><line x1="110.35" y1="79.58" x2="110.35" y2="97.21" style="fill:none; stroke:#a8bbc4; stroke-miterlimit:10; stroke-width:.5px;"/><polygon points="107.86 96.48 110.35 100.8 112.84 96.48 107.86 96.48" style="fill:#a8bbc4;"/></g><rect x="89.34" y="109.5" width="42.02" height="42.02" transform="translate(-59.96 116.25) rotate(-45)" style="fill:#c0bec1;"/><g><line x1="140.06" y1="130.51" x2="157.69" y2="130.51" style="fill:none; stroke:#c0bec1; stroke-miterlimit:10; stroke-width:.5px;"/><polygon points="156.96 133 161.28 130.51 156.96 128.02 156.96 133" style="fill:#c0bec1;"/></g><g><line x1="220.7" y1="130.51" x2="238.33" y2="130.51" style="fill:none; stroke:#a8bbc4; stroke-miterlimit:10; stroke-width:.5px;"/><polygon points="237.6 133 241.92 130.51 237.6 128.02 237.6 133" style="fill:#a8bbc4;"/></g><rect x="161.28" y="120.96" width="59.42" height="19.1" style="fill:#a8bbc4;"/><rect x="241.92" y="120.96" width="59.42" height="19.1" style="fill:#a8bbc4;"/><g><line x1="301.34" y1="130.51" x2="318.97" y2="130.51" style="fill:none; stroke:#a8bbc4; stroke-miterlimit:10; stroke-width:.5px;"/><polygon points="318.24 133 322.56 130.51 318.24 128.02 318.24 133" style="fill:#a8bbc4;"/></g><polygon points="379.42 140.06 320 140.06 325.12 120.96 384.54 120.96 379.42 140.06" style="fill:#ed9aaf;"/><rect x="411.9" y="109.5" width="42.02" height="42.02" transform="translate(34.51 344.34) rotate(-45)" style="fill:#c0bec1;"/><g><line x1="381.98" y1="130.51" x2="399.61" y2="130.51" style="fill:none; stroke:#ed9aaf; stroke-miterlimit:10; stroke-width:.5px;"/><polygon points="398.88 133 403.2 130.51 398.88 128.02 398.88 133" style="fill:#ed9aaf;"/></g><g><line x1="432.91" y1="160.22" x2="432.91" y2="177.85" style="fill:none; stroke:#c0bec1; stroke-miterlimit:10; stroke-width:.5px;"/><polygon points="430.42 177.12 432.91 181.44 435.4 177.12 430.42 177.12" style="fill:#c0bec1;"/></g><rect x="403.2" y="181.44" width="59.42" height="19.1" rx="9.55" ry="9.55" style="fill:#d5b99b;"/><g><line x1="271.63" y1="140.06" x2="271.63" y2="157.69" style="fill:none; stroke:#a8bbc4; stroke-miterlimit:10; stroke-width:.5px;"/><polygon points="269.14 156.96 271.63 161.28 274.12 156.96 269.14 156.96" style="fill:#a8bbc4;"/></g><rect x="241.92" y="161.28" width="59.42" height="19.1" style="fill:#a8bbc4;"/><g><line x1="301.34" y1="170.83" x2="318.97" y2="170.83" style="fill:none; stroke:#a8bbc4; stroke-miterlimit:10; stroke-width:.5px;"/><polygon points="318.24 173.32 322.56 170.83 318.24 168.34 318.24 173.32" style="fill:#a8bbc4;"/></g><rect x="322.56" y="161.28" width="59.42" height="19.1" style="fill:#a8bbc4;"/><g><line x1="352.27" y1="180.38" x2="352.27" y2="198.01" style="fill:none; stroke:#a8bbc4; stroke-miterlimit:10; stroke-width:.5px;"/><polygon points="349.78 197.28 352.27 201.6 354.76 197.28 349.78 197.28" style="fill:#a8bbc4;"/></g><rect x="331.26" y="210.3" width="42.02" height="42.02" transform="translate(-60.38 316.84) rotate(-45)" style="fill:#c0bec1;"/><g><line x1="381.98" y1="231.31" x2="399.61" y2="231.31" style="fill:none; stroke:#c0bec1; stroke-miterlimit:10; stroke-width:.5px;"/><polygon points="398.88 233.8 403.2 231.31 398.88 228.82 398.88 233.8" style="fill:#c0bec1;"/></g><rect x="403.2" y="221.76" width="59.42" height="19.1" style="fill:#a8bbc4;"/><g><line x1="432.91" y1="240.86" x2="432.91" y2="258.49" style="fill:none; stroke:#a8bbc4; stroke-miterlimit:10; stroke-width:.5px;"/><polygon points="430.42 257.76 432.91 262.08 435.4 257.76 430.42 257.76" style="fill:#a8bbc4;"/></g><rect x="403.2" y="262.08" width="59.42" height="19.1" rx="9.55" ry="9.55" style="fill:#d5b99b;"/><g><line x1="352.27" y1="261.02" x2="352.27" y2="278.65" style="fill:none; stroke:#c0bec1; stroke-miterlimit:10; stroke-width:.5px;"/><polygon points="349.78 277.92 352.27 282.24 354.76 277.92 349.78 277.92" style="fill:#c0bec1;"/></g><rect x="322.56" y="282.24" width="59.42" height="19.1" style="fill:#a8bbc4;"/><g><line x1="352.27" y1="301.34" x2="352.27" y2="318.97" style="fill:none; stroke:#a8bbc4; stroke-miterlimit:10; stroke-width:.5px;"/><polygon points="349.78 318.24 352.27 322.56 354.76 318.24 349.78 318.24" style="fill:#a8bbc4;"/></g><rect x="322.56" y="322.56" width="59.42" height="19.1" style="fill:#a8bbc4;"/><g><line x1="352.27" y1="341.66" x2="352.27" y2="359.29" style="fill:none; stroke:#a8bbc4; stroke-miterlimit:10; stroke-width:.5px;"/><polygon points="349.78 358.56 352.27 362.88 354.76 358.56 349.78 358.56" style="fill:#a8bbc4;"/></g><rect x="322.56" y="362.88" width="59.42" height="19.1" style="fill:#a8bbc4;"/><g><line x1="352.27" y1="381.98" x2="352.27" y2="399.61" style="fill:none; stroke:#a8bbc4; stroke-miterlimit:10; stroke-width:.5px;"/><polygon points="349.78 398.88 352.27 403.2 354.76 398.88 349.78 398.88" style="fill:#a8bbc4;"/></g><rect x="322.56" y="403.2" width="59.42" height="19.1" style="fill:#a8bbc4;"/><g><line x1="352.27" y1="422.3" x2="352.27" y2="439.93" style="fill:none; stroke:#a8bbc4; stroke-miterlimit:10; stroke-width:.5px;"/><polygon points="349.78 439.2 352.27 443.52 354.76 439.2 349.78 439.2" style="fill:#a8bbc4;"/></g><rect x="322.56" y="443.52" width="59.42" height="19.1" rx="9.55" ry="9.55" style="fill:#d5b99b;"/><g><line x1="110.35" y1="160.22" x2="110.35" y2="177.85" style="fill:none; stroke:#c0bec1; stroke-miterlimit:10; stroke-width:.5px;"/><polygon points="107.86 177.12 110.35 181.44 112.84 177.12 107.86 177.12" style="fill:#c0bec1;"/></g><rect x="89.34" y="190.14" width="42.02" height="42.02" transform="translate(-116.98 139.87) rotate(-45)" style="fill:#c0bec1;"/><g><line x1="63.01" y1="211.15" x2="80.64" y2="211.15" style="fill:none; stroke:#c0bec1; stroke-miterlimit:10; stroke-width:.5px;"/><polygon points="63.74 213.64 59.42 211.15 63.74 208.66 63.74 213.64" style="fill:#c0bec1;"/></g><g><line x1="110.35" y1="240.86" x2="110.35" y2="258.49" style="fill:none; stroke:#c0bec1; stroke-miterlimit:10; stroke-width:.5px;"/><polygon points="107.86 257.76 110.35 262.08 112.84 257.76 107.86 257.76" style="fill:#c0bec1;"/></g><rect x="0" y="201.6" width="59.42" height="19.1" style="fill:#a8bbc4;"/><rect x="80.64" y="262.08" width="59.42" height="19.1" style="fill:#a8bbc4;"/><line x1="29.71" y1="220.7" x2="29.71" y2="291.79" style="fill:none; stroke:#a8bbc4; stroke-miterlimit:10; stroke-width:.5px;"/><line x1="190.99" y1="291.79" x2="29.71" y2="291.79" style="fill:none; stroke:#a8bbc4; stroke-miterlimit:10; stroke-width:.5px;"/><g><line x1="190.99" y1="291.79" x2="190.99" y2="143.65" style="fill:none; stroke:#a8bbc4; stroke-miterlimit:10; stroke-width:.5px;"/><polygon points="193.48 144.38 190.99 140.06 188.5 144.38 193.48 144.38" style="fill:#a8bbc4;"/></g><g><line x1="140.06" y1="271.63" x2="190.88" y2="271.63" style="fill:none; stroke:#a8bbc4; stroke-miterlimit:10; stroke-width:.5px;"/><g><rect x="189.13" y="269.98" width="3.3" height="3.3" style="fill:#fff;"/><path d="m192.68,273.53h-3.8v-3.8h3.8v3.8Zm-3.3-.5h2.8v-2.8h-2.8v2.8Z" style="fill:#a8bbc4;"/></g></g><text transform="translate(176.3 7.83) scale(.88 1)" style="fill:#666; font-family:TrebuchetMS, &apos;Trebuchet MS&apos;; font-size:5.84px;"><tspan x="0" y="0" xml:space="preserve">Script begins  </tspan><tspan x="3.93" y="7">execution</tspan></text><text transform="translate(82.96 68.31) scale(.88 1)" style="fill:#666; font-family:TrebuchetMS, &apos;Trebuchet MS&apos;; font-size:5.84px;"><tspan x="0" y="0">Search player inventory </tspan><tspan x="4.24" y="7">for LZ-marking mags</tspan></text><text transform="translate(249.63 68.31) scale(.88 1)" style="fill:#666; font-family:TrebuchetMS, &apos;Trebuchet MS&apos;; font-size:5.84px;"><tspan x="0" y="0" xml:space="preserve">Script ends w/ hint  </tspan><tspan x="4.91" y="7">&quot;not supported&quot;</tspan></text><text transform="translate(169.68 66.84)" style="fill:#666; font-family:TrebuchetMS, &apos;Trebuchet MS&apos;; font-size:5.84px;"><tspan x="0" y="0">Player is civilian </tspan><tspan x="3.33" y="7">or faction not </tspan><tspan x="7.14" y="14.01">supported?</tspan></text><text transform="translate(95.39 125.2)" style="fill:#666; font-family:TrebuchetMS, &apos;Trebuchet MS&apos;; font-size:5.84px;"><tspan x="0" y="0">Compatible </tspan><tspan x="2.6" y="7">magazine </tspan><tspan x="6.43" y="14.01">found?</tspan></text><text transform="translate(165.52 128.79)" style="fill:#666; font-family:TrebuchetMS, &apos;Trebuchet MS&apos;; font-size:5.84px;"><tspan x="0" y="0">Player uses compat </tspan><tspan x="5.65" y="7">mag to mark lz</tspan></text><text transform="translate(253.18 128.79)" style="fill:#666; font-family:TrebuchetMS, &apos;Trebuchet MS&apos;; font-size:5.84px;"><tspan x="0" y="0">Faction-based </tspan><tspan x="-5.28" y="7">helicopter spawns</tspan></text><text transform="translate(332.13 128.79)" style="fill:#666; font-family:TrebuchetMS, &apos;Trebuchet MS&apos;; font-size:5.84px;"><tspan x="0" y="0">Monitor vehicle </tspan><tspan x="5.84" y="7">status (EH)</tspan></text><text transform="translate(246.45 169.11)" style="fill:#666; font-family:TrebuchetMS, &apos;Trebuchet MS&apos;; font-size:5.84px;"><tspan x="0" y="0">Helicopter lands at </tspan><tspan x="4.47" y="7">extraction zone</tspan></text><text transform="translate(410.91 189.27) scale(.88 1)" style="fill:#666; font-family:TrebuchetMS, &apos;Trebuchet MS&apos;; font-size:5.84px;"><tspan x="0" y="0" xml:space="preserve">Script ends w/ hint  </tspan><tspan x="4.54" y="7">&quot;heli destroyed&quot;</tspan></text><text transform="translate(408.72 229.59)" style="fill:#666; font-family:TrebuchetMS, &apos;Trebuchet MS&apos;; font-size:5.84px;"><tspan x="0" y="0">Helicopter returns </tspan><tspan x="-1.93" y="7">to base (spawn pos)</tspan></text><text transform="translate(410.91 269.91) scale(.88 1)" style="fill:#666; font-family:TrebuchetMS, &apos;Trebuchet MS&apos;; font-size:5.84px;"><tspan x="0" y="0" xml:space="preserve">Script ends w/ hint  </tspan><tspan x="-1.74" y="7">&quot;missed extract heli&quot;</tspan></text><text transform="translate(326.22 290.07)" style="fill:#666; font-family:TrebuchetMS, &apos;Trebuchet MS&apos;; font-size:5.84px;"><tspan x="0" y="0">Player marks a drop </tspan><tspan x="4.17" y="7">off point on map</tspan></text><text transform="translate(327.31 330.39)" style="fill:#666; font-family:TrebuchetMS, &apos;Trebuchet MS&apos;; font-size:5.84px;"><tspan x="0" y="0">Helicopter lands at </tspan><tspan x="2.16" y="7">the drop off zone</tspan></text><text transform="translate(328.61 370.71)" style="fill:#666; font-family:TrebuchetMS, &apos;Trebuchet MS&apos;; font-size:5.84px;"><tspan x="0" y="0">Player disembarks </tspan><tspan x="5.04" y="7">the helicopter</tspan></text><text transform="translate(328.29 411.03)" style="fill:#666; font-family:TrebuchetMS, &apos;Trebuchet MS&apos;; font-size:5.84px;"><tspan x="0" y="0">Helicopter returns </tspan><tspan x="-1.94" y="7">to base (spawn pos)</tspan></text><text transform="translate(333.91 451.35)" style="fill:#666; font-family:TrebuchetMS, &apos;Trebuchet MS&apos;; font-size:5.84px;"><tspan x="0" y="0">Script finishes </tspan><tspan x="5.53" y="7">execution</tspan></text><text transform="translate(85.44 269.91)" style="fill:#666; font-family:TrebuchetMS, &apos;Trebuchet MS&apos;; font-size:5.84px;"><tspan x="0" y="0">Add smoke nade to </tspan><tspan x="1.86" y="7">player&apos;s inventory</tspan></text><text transform="translate(8.61 209.43)" style="fill:#666; font-family:TrebuchetMS, &apos;Trebuchet MS&apos;; font-size:5.84px;"><tspan x="0" y="0" xml:space="preserve">Add IR strobe to  </tspan><tspan x="-1.95" y="7">player&apos;s inventory</tspan></text><text transform="translate(89.55 210.62)" style="fill:#666; font-family:TrebuchetMS, &apos;Trebuchet MS&apos;; font-size:5.84px;"><tspan x="0" y="0">Is it day time or </tspan><tspan x="6.2" y="7">night time?</tspan></text><text transform="translate(339.03 226.83)" style="fill:#666; font-family:TrebuchetMS, &apos;Trebuchet MS&apos;; font-size:5.84px;"><tspan x="0" y="0">Time&apos;s up? </tspan><tspan x="-8.1" y="7">(missed extract)</tspan></text><text transform="translate(416.64 126.38)" style="fill:#666; font-family:TrebuchetMS, &apos;Trebuchet MS&apos;; font-size:5.84px;"><tspan x="0" y="0">Is helicopter </tspan><tspan x="-2.47" y="7">immoblized or </tspan><tspan x="2.29" y="14.01">destroyed?</tspan></text><text transform="translate(227.1 67.38)" style="fill:#c0bec1; font-family:TrebuchetMS, &apos;Trebuchet MS&apos;; font-size:5.84px;"><tspan x="0" y="0">yes</tspan></text><text transform="translate(147.51 67.38)" style="fill:#c0bec1; font-family:TrebuchetMS, &apos;Trebuchet MS&apos;; font-size:5.84px;"><tspan x="0" y="0">no</tspan></text><text transform="translate(146.46 127.86)" style="fill:#c0bec1; font-family:TrebuchetMS, &apos;Trebuchet MS&apos;; font-size:5.84px;"><tspan x="0" y="0">yes</tspan></text><text transform="translate(112.49 170.83)" style="fill:#c0bec1; font-family:TrebuchetMS, &apos;Trebuchet MS&apos;; font-size:5.84px;"><tspan x="0" y="0">no</tspan></text><text transform="translate(65.39 208.5)" style="fill:#c0bec1; font-family:TrebuchetMS, &apos;Trebuchet MS&apos;; font-size:5.84px;"><tspan x="0" y="0">night</tspan></text><text transform="translate(112.65 251.47)" style="fill:#c0bec1; font-family:TrebuchetMS, &apos;Trebuchet MS&apos;; font-size:5.84px;"><tspan x="0" y="0">day</tspan></text><text transform="translate(435.06 170.83)" style="fill:#c0bec1; font-family:TrebuchetMS, &apos;Trebuchet MS&apos;; font-size:5.84px;"><tspan x="0" y="0">yes</tspan></text><text transform="translate(388.38 228.66)" style="fill:#c0bec1; font-family:TrebuchetMS, &apos;Trebuchet MS&apos;; font-size:5.84px;"><tspan x="0" y="0">yes</tspan></text><text transform="translate(354.41 271.63)" style="fill:#c0bec1; font-family:TrebuchetMS, &apos;Trebuchet MS&apos;; font-size:5.84px;"><tspan x="0" y="0">no</tspan></text><text transform="translate(341.66 169.11)" style="fill:#666; font-family:TrebuchetMS, &apos;Trebuchet MS&apos;; font-size:5.84px;"><tspan x="0" y="0" xml:space="preserve">Dust-off    </tspan><tspan x="-12.97" y="7">countdown begins</tspan></text></svg>