<svg id="Layer_1" data-name="Layer 1" xmlns="http://www.w3.org/2000/svg" viewBox="0 0 462.619 462.619"><defs><style>.cls-1,.cls-4,.cls-6,.cls-8{fill:none;stroke-miterlimit:10;stroke-width:0.5px;}.cls-1{stroke:#c8a57d;}.cls-2{fill:#c8a57d;}.cls-10,.cls-3{fill:#a569bf;}.cls-4{stroke:#a569bf;}.cls-5{fill:#a3bda2;}.cls-6{stroke:#a3bda2;}.cls-7{fill:#e05073;}.cls-8{stroke:#e05073;}.cls-10,.cls-9{font-size:5.836px;font-family:SegoeUI, Segoe UI;}.cls-9{fill:#fff;}</style></defs><title>flowchart</title><line class="cls-1" x1="190.99" y1="19.099" x2="190.99" y2="36.732"/><polygon class="cls-2" points="188.496 36.003 190.989 40.32 193.482 36.003 188.496 36.003"/><rect class="cls-2" x="161.28" width="59.419" height="19.099" rx="9.549"/><rect class="cls-3" x="172.024" y="52.205" width="42.016" height="42.016" transform="translate(2.726 154.754) rotate(-45)"/><line class="cls-4" x1="220.699" y1="70.029" x2="238.332" y2="70.029"/><polygon class="cls-3" points="237.603 72.523 241.92 70.03 237.603 67.537 237.603 72.523"/><rect class="cls-2" x="241.92" y="60.48" width="59.419" height="19.099" rx="9.549"/><line class="cls-4" x1="161.28" y1="70.029" x2="143.647" y2="70.029"/><polygon class="cls-3" points="144.376 67.536 140.059 70.029 144.376 72.522 144.376 67.536"/><rect class="cls-5" x="80.64" y="60.48" width="59.419" height="19.099"/><line class="cls-6" x1="110.349" y1="79.579" x2="110.349" y2="97.212"/><polygon class="cls-5" points="107.856 96.483 110.349 100.8 112.842 96.483 107.856 96.483"/><rect class="cls-3" x="91.384" y="112.685" width="42.016" height="42.016" transform="translate(-63.659 115.447) rotate(-45)"/><line class="cls-4" x1="140.059" y1="130.51" x2="157.692" y2="130.51"/><polygon class="cls-3" points="156.963 133.003 161.28 130.51 156.963 128.017 156.963 133.003"/><line class="cls-6" x1="220.699" y1="130.51" x2="238.332" y2="130.51"/><polygon class="cls-5" points="237.603 133.003 241.92 130.51 237.603 128.017 237.603 133.003"/><rect class="cls-5" x="161.28" y="120.96" width="59.419" height="19.099"/><rect class="cls-5" x="241.92" y="120.96" width="59.419" height="19.099"/><line class="cls-6" x1="301.339" y1="130.51" x2="318.972" y2="130.51"/><polygon class="cls-5" points="318.243 133.003 322.56 130.51 318.243 128.017 318.243 133.003"/><polygon class="cls-7" points="379.42 140.059 320.001 140.059 325.119 120.96 384.538 120.96 379.42 140.059"/><rect class="cls-3" x="413.944" y="112.685" width="42.016" height="42.016" transform="translate(30.817 343.532) rotate(-45)"/><line class="cls-8" x1="381.979" y1="130.51" x2="399.612" y2="130.51"/><polygon class="cls-7" points="398.883 133.003 403.2 130.51 398.883 128.017 398.883 133.003"/><line class="cls-4" x1="432.91" y1="160.219" x2="432.91" y2="177.852"/><polygon class="cls-3" points="430.416 177.123 432.909 181.44 435.402 177.123 430.416 177.123"/><rect class="cls-2" x="403.2" y="181.44" width="59.419" height="19.099" rx="9.549"/><line class="cls-6" x1="271.63" y1="140.059" x2="271.63" y2="157.692"/><polygon class="cls-5" points="269.136 156.963 271.629 161.28 274.122 156.963 269.136 156.963"/><rect class="cls-5" x="241.92" y="161.28" width="59.419" height="19.099"/><line class="cls-6" x1="301.339" y1="170.83" x2="318.972" y2="170.83"/><polygon class="cls-5" points="318.243 173.323 322.56 170.83 318.243 168.337 318.243 173.323"/><rect class="cls-5" x="322.56" y="161.28" width="59.419" height="19.099"/><line class="cls-6" x1="352.27" y1="180.379" x2="352.27" y2="198.012"/><polygon class="cls-5" points="349.776 197.283 352.269 201.6 354.762 197.283 349.776 197.283"/><rect class="cls-3" x="333.304" y="213.485" width="42.016" height="42.016" transform="translate(-64.079 316.034) rotate(-45)"/><line class="cls-4" x1="381.979" y1="231.31" x2="399.612" y2="231.31"/><polygon class="cls-3" points="398.883 233.803 403.2 231.31 398.883 228.817 398.883 233.803"/><rect class="cls-5" x="403.2" y="221.76" width="59.419" height="19.099"/><line class="cls-6" x1="432.91" y1="240.859" x2="432.91" y2="258.492"/><polygon class="cls-5" points="430.416 257.763 432.909 262.08 435.402 257.763 430.416 257.763"/><rect class="cls-2" x="403.2" y="262.08" width="59.419" height="19.099" rx="9.549"/><line class="cls-4" x1="352.27" y1="261.019" x2="352.27" y2="278.652"/><polygon class="cls-3" points="349.776 277.923 352.269 282.24 354.762 277.923 349.776 277.923"/><rect class="cls-5" x="322.56" y="282.24" width="59.419" height="19.099"/><line class="cls-6" x1="352.27" y1="301.339" x2="352.27" y2="318.972"/><polygon class="cls-5" points="349.776 318.243 352.269 322.56 354.762 318.243 349.776 318.243"/><rect class="cls-5" x="322.56" y="322.56" width="59.419" height="19.099"/><line class="cls-6" x1="352.27" y1="341.659" x2="352.27" y2="359.292"/><polygon class="cls-5" points="349.776 358.563 352.269 362.88 354.762 358.563 349.776 358.563"/><rect class="cls-5" x="322.56" y="362.88" width="59.419" height="19.099"/><line class="cls-6" x1="352.27" y1="381.979" x2="352.27" y2="399.612"/><polygon class="cls-5" points="349.776 398.883 352.269 403.2 354.762 398.883 349.776 398.883"/><rect class="cls-5" x="322.56" y="403.2" width="59.419" height="19.099"/><line class="cls-6" x1="381.979" y1="412.75" x2="399.612" y2="412.75"/><polygon class="cls-5" points="398.883 415.243 403.2 412.75 398.883 410.257 398.883 415.243"/><rect class="cls-5" x="403.2" y="403.2" width="59.419" height="19.099"/><line class="cls-6" x1="352.27" y1="422.299" x2="352.27" y2="439.932"/><polygon class="cls-5" points="349.776 439.203 352.269 443.52 354.762 439.203 349.776 439.203"/><rect class="cls-2" x="322.56" y="443.52" width="59.419" height="19.099" rx="9.549"/><line class="cls-4" x1="110.349" y1="160.219" x2="110.349" y2="177.852"/><polygon class="cls-3" points="107.856 177.123 110.349 181.44 112.842 177.123 107.856 177.123"/><rect class="cls-3" x="91.384" y="193.325" width="42.016" height="42.016" transform="translate(-120.68 139.066) rotate(-45)"/><line class="cls-4" x1="63.007" y1="211.15" x2="80.64" y2="211.15"/><polygon class="cls-3" points="63.736 213.643 59.419 211.15 63.736 208.657 63.736 213.643"/><line class="cls-4" x1="110.349" y1="240.859" x2="110.349" y2="258.492"/><polygon class="cls-3" points="107.856 257.763 110.349 262.08 112.842 257.763 107.856 257.763"/><rect class="cls-5" y="201.6" width="59.419" height="19.099"/><rect class="cls-5" x="80.64" y="262.08" width="59.419" height="19.099"/><line class="cls-6" x1="29.709" y1="220.699" x2="29.709" y2="291.79"/><line class="cls-6" x1="190.99" y1="291.79" x2="29.709" y2="291.79"/><line class="cls-6" x1="190.99" y1="291.79" x2="190.99" y2="143.647"/><polygon class="cls-5" points="193.483 144.376 190.99 140.059 188.497 144.376 193.483 144.376"/><line class="cls-6" x1="140.059" y1="271.63" x2="191.065" y2="271.63"/><path class="cls-5" d="M193.014,276.693a1.88,1.88,0,1,0-1.88-1.88A1.88,1.88,0,0,0,193.014,276.693Z" transform="translate(-2.042 -3.183)"/><text class="cls-9" transform="translate(176.649 7.786) scale(0.876 1)"><tspan xml:space="preserve">script begins  </tspan><tspan x="3.92" y="7.003">execution</tspan></text><text class="cls-9" transform="translate(87.443 68.265) scale(0.884 1)">search player inv for <tspan x="4.427" y="7.003">lz-marking mags</tspan></text><text class="cls-9" transform="translate(250.788 68.265) scale(0.876 1)"><tspan xml:space="preserve">script ends w/ hint  </tspan><tspan x="3.072" y="7.003">&quot;not supported&quot;</tspan></text><text class="cls-9" transform="translate(170.879 66.799)">player is civilian <tspan x="2.636" y="7.003">or faction not </tspan><tspan x="5.525" y="14.006">supported?</tspan></text><text class="cls-9" transform="translate(95.936 127.278)">compatible <tspan x="-4.052" y="7.003">mag(s) found?</tspan></text><text class="cls-9" transform="translate(165.895 128.746) scale(1.009 1)">player uses compat <tspan x="5.569" y="7.003">mag to mark lz</tspan></text><text class="cls-9" transform="translate(253.819 128.746) scale(1.009 1)">faction-based <tspan x="-5.477" y="7.003">helicopter spawns</tspan></text><text class="cls-9" transform="translate(332.314 128.746)">monitor vehicle <tspan x="5.457" y="7.003">satus (evh)</tspan></text><text class="cls-9" transform="translate(247.652 169.065) scale(1.009 1)">helicopter lands at <tspan x="4.001" y="7.003">extraction zone</tspan></text><text class="cls-9" transform="translate(326.643 169.065) scale(1.009 1)">dus-of countdown <tspan x="16.842" y="7.003">begins</tspan></text><text class="cls-9" transform="translate(412.067 189.225) scale(0.876 1)"><tspan xml:space="preserve">script ends w/ hint  </tspan><tspan x="3.483" y="7.003">&quot;heli desroyed&quot;</tspan></text><text class="cls-9" transform="translate(409.928 229.546) scale(1.009 1)">helicopter returns <tspan x="-2.906" y="7.003">to base (spawn pos)</tspan></text><text class="cls-9" transform="translate(412.067 269.865) scale(0.876 1)"><tspan xml:space="preserve">script ends w/ hint  </tspan><tspan x="-2.321" y="7.003">&quot;missed extract heli&quot;</tspan></text><text class="cls-9" transform="translate(326.669 290.025)">player marks a drop <tspan x="3.831" y="7.003">of point on map</tspan></text><text class="cls-9" transform="translate(328.506 330.346)">helicopter lands at <tspan x="1.311" y="7.003">the drop of zone</tspan></text><text class="cls-9" transform="translate(329.006 370.666)">player disembarks <tspan x="5.405" y="7.003">the helicopter</tspan></text><text class="cls-9" transform="translate(325.996 410.986)">helicopter returns to <tspan x="4.089" y="7.003">base (spawn pos)</tspan></text><text class="cls-9" transform="translate(412.255 410.986)">deleted &amp; script <tspan x="-1.695" y="7.003">become available</tspan></text><text class="cls-9" transform="translate(334.829 451.306)">script fnishes <tspan x="4.994" y="7.003">execution</tspan></text><text class="cls-9" transform="translate(84.754 269.865)">add smoke grenade <tspan x="-0.527" y="7.003">to player&apos;s inventory</tspan></text><text class="cls-9" transform="translate(9.205 209.386)"><tspan xml:space="preserve">add IR srobe to  </tspan><tspan x="-2.12" y="7.003">player&apos;s inventory</tspan></text><text class="cls-9" transform="translate(90.438 210.571)">is it day time or <tspan x="5.353" y="7.003">night time?</tspan></text><text class="cls-9" transform="translate(339.152 227.782)">time&apos;s up? <tspan x="-7.072" y="7.003">(missed extract)</tspan></text><text class="cls-9" transform="translate(417.273 128.34)">is helicopter <tspan x="1.704" y="7.003">desroyed?</tspan></text><text class="cls-10" transform="translate(227.133 67.377)">yes</text><text class="cls-10" transform="translate(147.309 67.377)">no</text><text class="cls-10" transform="translate(146.494 127.857)">yes</text><text class="cls-10" transform="translate(112.294 170.829)">no</text><text class="cls-10" transform="translate(65.313 208.497)">night</text><text class="cls-10" transform="translate(112.632 251.47)">day</text><text class="cls-10" transform="translate(435.1 170.829)">yes</text><text class="cls-10" transform="translate(388.414 228.657)">yes</text><text class="cls-10" transform="translate(354.214 271.63)">no</text></svg>