<svg xmlns="http://www.w3.org/2000/svg" viewBox="0 0 249.833 217.333"><path d="M248.453 127.29c-11.78 4.015-23.56 8.029-35.339 12.044-.015-.016-.031-.031-.046-.047.142-.119.269-.264.428-.353 2.648-1.488 5.303-2.963 7.949-4.453 2.761-1.554 5.498-3.152 8.28-4.666 1.046-.57 2.191-.959 3.331-1.449-.128.004-.234.006-.34.012-2.468.133-4.613 1.192-6.746 2.316-3.053 1.608-6.128 3.175-9.195 4.755-3.384 1.743-6.768 3.489-10.162 5.213-.298.151-.672.152-1.011.221-.687.14-1.374.276-2.061.417-.161.033-.325.128-.477.109-1.051-.135-1.938.238-2.778.82-.286.198-.616.383-.951.448-.677.131-1.2.469-1.699.922-.28.253-.65.437-1.011.566-4.288 1.527-8.767 2.303-13.18 3.336-6.97 1.63-13.943 3.246-20.914 4.873-1.496.349-5.448 1.303-6.941 1.663.026.06.027.065.053.125 4.395-.941 11.273-2.418 15.67-3.351 5.386-1.143 10.774-2.273 16.162-3.408.099-.021.201-.026.314.012-4.422 1.766-9.044 2.956-13.478 4.671.023.068.047.136.07.204 1.022-.316 2.039-.649 3.067-.946 3.905-1.129 7.808-2.27 11.724-3.361 2.49-.693 5.008-1.287 7.501-1.97.491-.135.94-.453 1.383-.728.98-.607 1.14-.431 1.648.61.041.084 0 0 .479 1.479.031.178.041.303-.049.351-.953.514-1.918 1.006-2.885 1.494-.147.074-.327.145-.482.128-1.06-.119-1.98.411-2.542 1.093-.719.871-1.703 1.164-2.553 1.726-1.29.852-2.63 1.628-3.941 2.43l-2.619 1.492c-.521.347-.752.951-.636 1.584.028.153.018.334-.038.478-.271.699-.567 1.389-.849 2.084-.261.645-.676 1.143-1.268 1.529-.511.333-1.02.668-1.531 1.001-.348-.303-.098-.089-.348-.303 0 0-1.616.732-.006.193l.164.233c-4.684 3.056-9.364 6.118-14.042 9.182-.573.375-1.087.317-1.668-.04-3.13-1.926-5.89-4.309-8.531-6.84-.522-.501-.984-1.064-1.493-1.58-.12-.122-.328-.151-.472-.256-.14-.102-.249-.247-.403-.406.298-.074.511-.063.582-.158.13-.173.175-.41.192-.647.273-.475.521-.967.83-1.417.166-.243.435-.415.66-.617.108-.097.253-.169.327-.286.711-1.123 1.411-2.254 2.137-3.421l-1.007-.99-3.618 5.224c-.155.218-.422.354-.614.551-.087.09-.22.718-.23.843-.025.304-8.704-6.571-8.704-6.571-.134.277-.419.714-.538.96 2.06 1.625 4.088 3.225 6.117 4.826.508.407.86.64.901.879-.178.018-.463.052-.64-.124l-.322.286c.235.739-.122 1.025-.998 1.705-.265.205-.558.381-.805.608-.488.446-.491.62-.042 1.102.316.339.652.661 1.003 1.014-.631.941-1.263 1.885-1.907 2.847.381.285.719.537 1.077.805.705-.932 1.378-1.821 2.074-2.741 1.635 1.379 3.231 2.725 4.954 4.178-.706.303-1.288.553-1.945.835.819.771 1.535 1.444 2.325 2.188-1.259.377-2.4.839-3.585 1.042-1.418.243-2.011 1.127-2.34 2.364-.224.846-.463 1.687-.695 2.531.015.034.03.069.044.103 1.979-.152 3.956-.344 5.938-.445 1.841-.094 3.588-.472 5.26-1.268.911-.434 1.856-.879 2.835-1.072 2.33-.46 4.689-.777 7.039-1.136.156-.024.372.036.493.137.431.36.814.808 1.196 1.217.112.12.214.343.144.475-.152.289-.404.525-.632.803.531.566.201.849-.56 1.563-.485.338-.743.882-.582 1.565.159.675.904 1.031 1.536.888.651-.148 1.059-.845.891-1.518-.059-.236-.193-.482-.164-.707.189-1.482.448-2.952 1.042-4.337.256-.597.706-1.026 1.298-1.261 1.847-.734 3.704-1.445 5.561-2.154.187-.064.394-.136.591-.204l.138.427c.015.046.064.071.11.057.046-.015.071-.064.057-.11l-.139-.431c3.208-1.107 7.465-2.621 10.508-3.599 5.68-1.826 11.313-3.772 16.815-6.086.112-.047.233-.071.369-.112.008.413-.051.793.03 1.149.389 1.71 2.032 2.237 3.313 1.433.77-.483 1.161-1.374.799-2.509-.119-.372-.042-.649.192-.871.356-.022.664-.041.994-.062.024.103-.389.764-.33 1.022.167-.303.715-1.027.842-1.258-.241-.114-.456-.216-.625-.295-.051-.816.556-.998 1.138-1.225.821-.321 1.633-.666 2.446-1.006.53-.221 1.057-.452 1.715-.735.269.614.304.769.522 1.277-.036.153-.06.31-.06.476 0 1.167.946 2.208 2.112 2.208 1.167 0 2.112-1.041 2.112-2.208 0-.495-.178-.934-.463-1.282.033-.742.115-1.233.7-1.734 1.162-.994 2.573-1.53 3.847-2.312.074-.046.18-.08.262-.067.991.151 1.401-.07 1.804-.924.08-.169.28-.286.435-.416.801-.674 1.684-1.272 2.381-2.04.495-.545.87-1.279 1.072-1.993.339-1.198-.186-2-1.373-2.368-.482-.149-.984-.236-1.477-.351-.128-.03-.277-.029-.379-.098-.429-.289-.843-.6-1.293-.924-.377.576-.806.406-1.256.146-1.154-.664-2.287-1.372-3.483-1.95-.112-.054-.232-.094-.358-.125l.185-.32c.01-.017.004-.039-.013-.049s-.039-.004-.049.013l-.197.341c-.386-.076-.809-.083-1.198-.065-.867.041-1.728.191-2.659.303.145-.242.286-.413.415-.629 1.388-.337-.051-.083-.07-.103-.176.168-.338.33-.521.509-.276.269-.433.359-.754.179-.326-.183-.671-.331-1.005-.5-.19-.097-.093-.487-.505-.386-.265.065-.264.069-.306.092-.402.222.237.233-.871.395-2.066.357-4.133.715-6.203 1.046-.45.072-.916.036-1.495.054.341-.77.63-1.424.92-2.078-.722.851-1.35 1.439-1.779 2.502-.546.139-1.128.287-1.77.451-.304-.96-.6-1.899-.914-2.89.768.241.408-.435.665-.56.489-.26.978-.521 1.548-.825-.048.204-.07.3-.094.4.046.007.083.025.11.015 5.935-2.174 11.868-4.353 17.804-6.524 6.306-2.306 12.614-4.608 18.924-6.904 1.017-.37 2.054-.684 3.071-1.054.253-.092.463-.303.692-.46-.017-.06-.041-.12-.065-.179zm-75.987 50.885c-.378-.528-.659-.92-1.025-1.433.62-.06 1.033-.1 1.657-.16-.23.578-.403 1.013-.632 1.593zm28.856-30.651c-.223.13-.603.359-.882-.267-.055-.179-.561-1.657-.57-1.838-.008-.183.065-.369.102-.554.209.048.465.038.618.158.272.214.379.127.561-.107.12-.155.35-.268.547-.299.079-.013.239.223.299.377.25.641.25.641.348.97.118.398.256.79.302 1.055-1.318.113-1.083.364-1.325.505zm21.682 10.331c.026.035.052.07.079.105-.049.627-.223.934-.321 1.06-.22-.074-.454-.121-.701-.121-.684 0-1.286.31-1.672.798-.052-.159-.146-.41-.214-.628.965-.414 1.897-.814 2.829-1.214zm-10.265 4.115c-.028.267-.049.467-.076.734-.218-.175-.38-.305-.592-.475.25-.096.417-.161.668-.259zm-6.273-15.636c-.8-.198-1.543-.484-2.166.36l-.745-2.262c-.119-.352-.042-.511.293-.628.362-.127.7-.336 1.069-.425.186-.045.558.043.604.163.34.887.618 1.797.945 2.792z" fill="#363738"/><g fill="#363738" stroke="#363738" stroke-miterlimit="10"><path d="M46.785 197.648c-.126 0-.486.094-1.081.282-.596.188-.956.251-1.081.188-.126 0-.329-.141-.611-.423-.282-.282-.423-.484-.423-.611.251-.438-.028-.36.379-.58s1.438-.797 1.877-.924c.438-.125.876-.266 1.316-.423.438-.155.846-.391 1.222-.705 1.316-1.128 2.646-2.24 3.995-3.337 1.347-1.096 2.757-2.068 4.23-2.914 1.472-.846 3.039-1.519 4.7-2.021 1.66-.501 3.431-.752 5.311-.752.752 0 1.269.094 1.551.281.282.188.423.627.423 1.316 0 .563-.314 1.113-.94 1.645-.627.533-1.332 1.004-2.115 1.41-.784.408-1.567.769-2.35 1.081-.784.314-1.332.533-1.645.658-.188.126-.721.361-1.598.705-.878.345-1.833.721-2.867 1.128-1.034.408-1.99.799-2.867 1.175-.878.376-1.41.597-1.598.658-.502.188-.832.314-.987.376-.157.063-.235.314-.235.752 0 .376.172.644.517.799.344.157.752.251 1.222.282.47.032.924.032 1.363 0 .438-.031.752-.047.94-.047 3.634 0 7.252-.423 10.857-1.27 3.603-.846 5.265-.963 8.775-1.778.125 0-1.807.725-1.399.568.407-.156-.73 0-.604 0 .063 0 .478.104.604.229.125.126.244-.089.244-.027-1.316 1.065 2.015.506-.242 1.289-2.256.784-4.653 1.442-7.191 1.974-2.538.533-4.982.94-7.332 1.223s-4.277.423-5.781.423c-.627 0-1.254-.141-1.88-.423-.627-.282-1.222-.579-1.786-.894-.564-.313-1.066-.61-1.504-.893-.439-.282-.815-.423-1.128-.423h-.281zm15.645-9.935c-1.102.192-2.235.538-3.398 1.033-1.166.497-2.275 1.137-3.328 1.92-1.055.786-1.993 1.672-2.816 2.662l.295.062c.655.137 1.554.009 2.698-.385.496-.171.496-.041 3.642-1.458 1.284-.576 2.545-1.21 3.786-1.903 1.239-.693 2.208-1.228 2.904-1.613-.132-.028-.29-.086-.476-.179-.186-.09-.313-.145-.377-.158-.853-.18-1.83-.172-2.93.019z"/><path d="M92.618 189.719c-.157-.658-.346-1.316-.564-1.974-.22-.658-.486-1.237-.799-1.739-.314-.501-.658-.752-1.033-.752-1.066 0-2.115.47-3.149 1.41-1.034.939-1.927 1.724-2.679 2.35-.69.564-1.584 1.27-2.68 2.115-1.097.846-2.146 1.661-3.148 2.444-.954.745-2.132 1.644-3.538 2.7-.14.105-.317.166-.492.166h-.952c-.306-.051-.04-.469.047-.799.104-.394.08-.673.142-.799 1.442-1.189 2.711-2.192 3.807-3.008 1.096-.813 2.271-1.707 3.524-2.679s2.459-1.896 3.619-2.773c1.159-.877 2.131-1.612 2.914-2.209.783-.595 1.27-.924 1.457-.987.502-.249.908-.406 1.223-.47.313-.062.72-.094 1.222-.094.813 0 1.41.392 1.786 1.175.376.784.689 1.645.939 2.585s.532 1.802.847 2.585c.313.784.877 1.175 1.692 1.175.188 0 .281-.03.281-.094.437-.188 1.236-.531 2.397-1.034 1.159-.501 2.381-1.034 3.666-1.598 1.284-.564 2.505-1.096 3.665-1.599 1.16-.5 1.989-.846 2.492-1.033.5-.188.86-.329 1.08-.424.219-.094.549-.141.987-.141.501 0 .813.126.94.376.125.251.188.597.188 1.034 0 .439-.141.784-.423 1.034-.282.251-.61.455-.987.61-.375.157-.783.282-1.222.376-.438.095-.815.204-1.128.329-.314.127-.879.393-1.691.799-.816.409-1.678.832-2.586 1.27-.908.439-1.755.862-2.537 1.269-.785.409-1.332.705-1.646.894-.063.126-.095.22-.095.282 0 .502.58.878 1.74 1.128 1.158.251 2.411.517 3.76.799 1.347.282 2.6.658 3.76 1.128.408.165.743.356 1.008.572.592.484.232 1.45-.532 1.437-.794-.014-1.689-.041-2.685-.082-1.548-.061-2.789-.215-3.725-.46-.025-.006-.042-.012-.066-.02-.2-.066-.598-.204-1.192-.413-.627-.219-1.285-.438-1.974-.658-.69-.219-1.349-.438-1.974-.658-.513-.179-.879-.306-1.098-.381-.084-.029-.17-.042-.258-.042h-.898c-1.066 0-2.195.268-3.385.799-1.191.533-2.365 1.175-3.525 1.927s-2.24 1.566-3.242 2.444c-1.004.877-1.759 1.54-1.812 1.497h0l-1.329-1.439c-.071-.076.131-.407.248-.568.363-.499.743-.914 1.012-1.183.313-.313.658-.657 1.035-1.033.375-.376.688-.658.939-.847.313-.313.846-.688 1.598-1.128.752-.438 1.52-.907 2.303-1.41.783-.5 1.473-.986 2.068-1.457.596-.47.893-.893.893-1.269 0-.31-.078-.797-.235-1.455zM115.52 209.077c.531-1.097 1.127-2.194 1.785-3.29.658-1.097 1.27-2.209 1.834-3.337.563-1.128.846-2.319.846-3.572v-.563c-.564-.063-1.254-.157-2.068-.282-.814-.126-1.583-.313-2.303-.564-.721-.249-1.332-.61-1.833-1.08-.503-.471-.752-1.112-.752-1.928 0-1.629.329-2.726.987-3.29.658-.563 1.77-.846 3.336-.846h1.035c.563 0 .939.032 1.127.094.502.251.83.644.987 1.175.155.533.282 1.066.376 1.599.094.533.235 1.003.424 1.41.188.408.594.61 1.221.61 1.065 0 1.959-.391 2.68-1.175.72-.782 1.316-1.691 1.786-2.726s.846-2.083 1.128-3.149c.281-1.064.578-1.911.893-2.538.313-.688.752-1.519 1.316-2.491.564-.971.846-1.927.846-2.866v-.471c-.814.314-1.613.564-2.396.752-.785.188-1.614.282-2.491.282-.314 0-.644-.015-.987-.047-.345-.031-.517-.266-.517-.705 0-.438.391-.799 1.175-1.081.783-.282 1.691-.578 2.727-.893 1.033-.313 2.082-.736 3.148-1.27 1.064-.531 1.88-1.33 2.443-2.396.564-.94 1.176-2.005 1.834-3.196.658-1.189 1.394-2.334 2.209-3.431.813-1.096 1.738-2.021 2.772-2.773s2.24-1.128 3.619-1.128c.438 0 .767.268.987.799.219.533.328.956.328 1.27 0 1.566-.375 2.899-1.127 3.995-.752 1.097-1.662 2.084-2.727 2.961-1.066.878-2.178 1.724-3.337 2.538-1.16.814-2.147 1.724-2.961 2.726-.978 1.258-.61.749-1.739 2.961-.721 1.41-1.426 2.914-2.115 4.512-.689 1.599-1.285 3.103-1.785 4.513-.502 1.409-.752 2.366-.752 2.866 0 .063.014.142.047.235.031.094.047.174.047.235l19.707-6.069.241.03c-.67-.129.374.041 1.436.21.444.07-.747.457-1.238.672-.621.273-.893.362-1.3.549-.408.188-.704.314-.893.376-.69.314-1.943.799-3.761 1.457s-3.729 1.349-5.733 2.068c-2.007.721-3.917 1.396-5.733 2.021-1.818.628-3.103 1.066-3.854 1.316l-1.034 1.128c-.188.439-.502 1.236-.939 2.396-.439 1.159-.91 2.381-1.41 3.666-.503 1.284-.987 2.506-1.457 3.666-.471 1.159-.799 1.958-.987 2.397-.126.376-.345.94-.658 1.692s-.69 1.472-1.128 2.161c-.439.689-.926 1.3-1.457 1.833-.533.532-1.081.799-1.645.799-1.004 0-1.756-.313-2.256-.939-.503-.627-.752-1.41-.752-2.35-.001-1.254.265-2.429.798-3.524zm1.597-13.959c.595.126 1.143.188 1.645.188h.94c0-.564-.032-1.176-.095-1.833-.063-.658-.438-.987-1.127-.987-.564 0-1.082.157-1.551.47-.471.314-.705.784-.705 1.41.001.376.298.627.893.752zm.605 13.776s-.092.255-.188.565c-.096.308-.182.448-.182.512-.063.188-.156.625-.281 1.315-.127.688-.221 1.128-.282 1.316.062 0 .155.03.282.094.376 0 .908-.597 1.598-1.786.689-1.191 1.363-2.57 2.021-4.136.658-1.567 1.236-3.103 1.738-4.606s.752-2.601.752-3.29v-1.128c-.563.125-1.127.329-1.691.611s.08.309-.376 1.551l-3.196 8.46-.195.522zm23.93-41.318c-.597.439-1.128.956-1.599 1.551-.47.597-.846 1.238-1.127 1.928-.283.689-.424 1.315-.424 1.88v.47c.376-.25.83-.626 1.363-1.128.531-.501 1.064-1.034 1.598-1.598.531-.564.987-1.176 1.363-1.833.376-.658.564-1.301.564-1.928-.564-.001-1.144.22-1.738.658z"/><path d="M141.047 196.246c.251-.376.596-.673 1.033-.893.439-.219.91-.391 1.41-.518.503-.125 1.002-.249 1.504-.376.502-.125.94-.249 1.316-.376 1.378-.501 2.616-.971 3.713-1.41 1.096-.438 2.162-.893 3.196-1.362 1.034-.471 2.099-.987 3.196-1.552 1.096-.563 2.334-1.222 3.713-1.974.313-.188.719-.501 1.222-.939.501-.438 1.034-.861 1.599-1.27.563-.407 1.143-.783 1.738-1.128.596-.344 1.111-.517 1.551-.517.877 0 1.316.47 1.316 1.409v.282c-.439.376-1.003.879-1.691 1.504-.691.628-1.363 1.302-2.021 2.021-.658.721-1.285 1.457-1.88 2.209-.343.432-.628.864-.856 1.295-.23.436.105.96.598.96h.036c1.999 0 4.002-.241 5.902-.859 1.448-.471 2.929-.742 4.445-.814.48-.023.836.486.64.926-.25.56-.752.966-1.506 1.217-.752.251-1.645.564-2.68.94-1.033.376-2.114.721-3.242 1.034s-2.256.596-3.385.846c-1.127.251-2.162.376-3.102.376-.689 0-1.348-.219-1.974-.658-.628-.438-.94-1.002-.94-1.691v-.282c0-.062.078-.282.235-.658.155-.376.329-.783.517-1.222.188-.438.36-.83.518-1.176.155-.343.266-.578.328-.704V190.418c-.375.188-1.002.503-1.879.94-.879.439-1.834.909-2.867 1.41-1.034.502-2.007.972-2.914 1.41-.909.438-1.551.752-1.928.939-.689.314-1.583.769-2.679 1.363-1.096.596-2.052.893-2.866.893-.313 0-.611-.047-.894-.141s-.423-.36-.423-.799v-.187zM173.853 196.904l17.483-8.46c.063-.062.297-.282.705-.658.407-.376.705-.688.894-.939.188-.188.673-.72 1.457-1.599.782-.877 1.612-1.833 2.491-2.867.877-1.033 1.723-1.988 2.537-2.866.814-.877 1.316-1.441 1.504-1.692.752-.877 1.629-1.786 2.633-2.726 1.002-.94 2.068-1.801 3.195-2.585 1.129-.783 2.318-1.425 3.572-1.928 1.253-.501 2.538-.752 3.854-.752.689 0 1.223.079 1.599.235.376.157.563.611.563 1.363 0 1.63-.61 3.181-1.832 4.652-1.223 1.474-2.759 2.884-4.606 4.23-1.849 1.348-3.839 2.632-5.969 3.854-2.132 1.223-4.122 2.397-5.97 3.525-1.849 1.128-3.383 2.225-4.605 3.29-.815.711-1.358 1.392-1.629 2.047-.189.456.148.962.642.958 2.305-.018 4.435-.111 6.392-.279 2.193-.188 4.324-.531 6.393-1.034 2.068-.5 4.137-1.175 6.204-2.021 2.02-.826 4.129-1.877 6.329-3.152.101-.059.784-.072.737.211l-.049.166c-.879 1.567-1.91 2.479-4.102 3.668-2.194 1.191-4.606 2.194-7.237 3.009-2.633.814-5.25 1.426-7.85 1.833-2.602.408-4.686.61-6.251.61-.314 0-.94-.015-1.88-.047-.94-.031-1.567-.047-1.881-.047-.814-.125-1.332-.611-1.551-1.457-.141-.542-.262-1.039-.364-1.492-.093-.415-.494-.618-.893-.471-.863.319-1.791.769-2.784 1.351-1.285.752-2.586 1.521-3.901 2.304-1.316.782-2.538 1.472-3.666 2.067-.308.163-.6.303-.876.421-15.515 6.662-16.377 4.962-1.331-2.701.013-.006.028-.014.043-.021zm37.009-22.943c-1.473.846-2.852 1.88-4.135 3.102-1.285 1.222-2.445 2.491-3.479 3.807-1.034 1.316-1.803 2.477-2.303 3.479.061 0 .155.016.281.047.125.032.219.047.282.047.877 0 2.052-.454 3.524-1.363 1.473-.907 2.962-1.988 4.466-3.242 1.504-1.253 2.851-2.538 4.042-3.854 1.189-1.316 1.941-2.412 2.256-3.29h-.752c-1.315-.003-2.709.42-4.182 1.267z"/></g><path d="M98.032 72.19c-.011-.037-.023-.073-.036-.11-.184-.505-.586-.852-1.091-.933-.213-.035-.527-.044-.733.045-.19.083-.371.179-.556.271-.627.314-1.193.77-1.789 1.145-.52.328-1.034.672-1.563.984-.565.334-1.132.662-1.699.993-.881.515-1.776 1.007-2.673 1.489-1.125.604-2.251 1.205-3.38 1.8-.875.461-1.761.897-2.646 1.336-2.245 1.034-4.489 2.07-6.718 3.14-2.115 1.015-4.233 2.015-6.37 2.972-1.173.526-2.332 1.077-3.479 1.661-.239.121-.478.245-.712.376-.156.088-.306.18-.45.289-.603.456-1.05 1.172-1.022 1.984.03.901.569 1.674 1.322 2.061.31.159.637.281.961.4.253.093.506.185.761.273.498.172.998.341 1.507.469.623.157 1.24.294 1.869.418 1.063.209 2.141.341 3.214.476 1.082.137 2.178.26 3.243.502.189.043.376.091.564.135-.827.943-1.618 1.924-2.407 2.904-.668.829-1.346 1.649-2.023 2.472-.625.762-1.307 1.473-1.968 2.201-.786.868-1.613 1.69-2.431 2.523-.76.776-1.528 1.541-2.296 2.307-.728.726-1.449 1.454-2.207 2.147-.857.784-1.716 1.567-2.573 2.351-.76.608-1.521 1.216-2.282 1.823-.571.458-1.13.941-1.732 1.351-1.616 1.1-3.226 2.204-4.866 3.264-2.116 1.367-4.233 2.735-6.35 4.102-.854.552-1.726 1.073-2.59 1.607-1.331.823-2.661 1.641-4.008 2.435-.258.152-.471.407-.62.694-.122.039-.243.093-.36.167-.47.3-.826.912-.776 1.507.032.38.104.758.328 1.065.074.101.149.201.224.3.238.333.46.672.708.998.14.184.286.363.429.544.36.492.71.991 1.111 1.448.4.457.785.941 1.225 1.356.424.399.833.82 1.268 1.205.457.406.919.804 1.373 1.214.823.743 1.681 1.432 2.543 2.122 1.01.81 2.014 1.624 3.048 2.401.431.323.889.614 1.336.911.489.323.985.617 1.501.888.912.48 1.899.755 2.878 1.031.628.176 1.269.314 1.904.461.809.186 1.635-.313 1.869-1.155.505-.376 1.007-.755 1.495-1.155.63-.515 1.259-1.031 1.888-1.546 1.206-.987 2.438-1.946 3.603-2.99 1.265-1.135 2.516-2.289 3.693-3.527 1.148-1.207 2.244-2.469 3.276-3.788.549-.702 1.079-1.421 1.592-2.153.49-.7.991-1.399 1.448-2.124.271-.431.543-.861.815-1.292.441-.697.88-1.395 1.321-2.092.166-.264.331-.525.482-.799.676-1.228 1.351-2.456 2.028-3.685.221-.401.415-.822.621-1.233.357-.711.715-1.422 1.072-2.132.509-1.012.964-2.056 1.441-3.085.07-.151.126-.309.187-.463.147-.374.294-.748.442-1.122.228-.58.435-1.166.638-1.756.198-.575.398-1.15.587-1.73.097.06.194.117.289.18.281.222.556.451.825.69.24.213.459.44.671.679.549.774 1.015 1.613 1.477 2.446.254.456.503.915.763 1.368.238.413.474.839.753 1.223.129.177.257.359.406.517.19.201.41.353.637.504.428.285.995.266 1.461.138.341-.094.653-.3.89-.576.466-.543.555-1.317.659-2.011.09-.602.164-1.199.226-1.805.123-1.208.183-2.423.255-3.636.14-2.356.349-4.705.552-7.056.202-2.329.398-4.659.591-6.988.116-1.151.216-2.307.357-3.455.146-1.195.294-2.389.44-3.584.303-2.494.54-4.996.887-7.483.173-1.234.383-2.464.489-3.708.047-.529.117-1.074-.037-1.591zm-37.105 66.235c-.616.507-1.231 1.015-1.847 1.522-.424.349-.859.682-1.298 1.01-.039-.013-.077-.028-.118-.037l-.072-.018c-.088-.035-.179-.058-.273-.067-.461-.113-.92-.231-1.378-.35-.324-.084-.641-.206-.959-.317-.778-.352-1.491-.801-2.198-1.296-.441-.309-.878-.626-1.321-.93-.96-.658-1.884-1.37-2.81-2.078-.798-.631-1.573-1.29-2.289-2.025-.773-.792-1.527-1.601-2.276-2.417-.369-.402-.754-.779-1.138-1.164-.387-.389-.806-.758-1.161-1.179-.078-.093-.156-.187-.235-.281 2.421-1.432 4.814-2.916 7.197-4.418.763.499 1.524.998 2.285 1.499.578.38 1.164.764 1.71 1.183 1.207.926 2.419 1.851 3.525 2.888 2.328 2.184 4.619 4.405 7.075 6.456.004.003.009.005.014.008-.096.08-.19.162-.287.242-.715.59-1.431 1.18-2.146 1.769zm8.526-8c-1.047 1.211-2.164 2.344-3.306 3.45-.075-.122-.163-.236-.275-.335-2.363-2.094-4.727-4.19-7.101-6.274-2.095-1.838-4.439-3.387-6.793-4.92.123-.078.247-.156.37-.234 1.01-.637 2.038-1.251 3.033-1.915.569-.38 1.139-.76 1.708-1.139.491.307.982.613 1.472.921.538.337 1.083.678 1.589 1.054 1.118.831 2.24 1.66 3.256 2.601 2.139 1.981 4.24 4.001 6.507 5.85.064.052.136.091.212.125-.224.272-.442.55-.672.816zm4.482-6.111c-.197.295-.389.594-.596.881-.248.342-.494.686-.744 1.026-.08.109-.161.218-.241.326-2.14-1.863-4.282-3.728-6.432-5.581-1.776-1.53-3.766-2.816-5.78-4.072.449-.354.898-.707 1.347-1.06l1.348-1.059c.419-.331.811-.728 1.209-1.087.239-.215.479-.431.718-.647.357.203.714.405 1.071.609.477.272.959.546 1.404.855.981.684 1.966 1.366 2.843 2.16 1.831 1.655 3.625 3.346 5.581 4.874-.577.924-1.149 1.851-1.728 2.775zm20.664-46.785c-.265 1.596-.431 3.208-.613 4.816-.256 2.263-.583 4.515-.825 6.78-.263 2.455-.475 4.914-.696 7.374-.132 1.392-.266 2.785-.398 4.177-.097 1.007-.218 2.011-.316 3.017-.089.912-.169 1.824-.26 2.736-.085-.159-.172-.317-.26-.474-.513-.917-1.133-1.778-1.896-2.479-.49-.449-1.016-.84-1.555-1.22-.355-.249-.737-.446-1.119-.643-.543-.279-1.137-.355-1.72-.162-.568.189-1.048.613-1.324 1.172-.097.197-.164.406-.203.62-.084.103-.142.224-.181.364-.189.677-.38 1.354-.562 2.033-.095.356-.191.712-.287 1.066-.077.287-.173.569-.262.851-.101.294-.202.588-.303.881-.258.75-.525 1.494-.813 2.232-.25.641-.519 1.275-.778 1.912-.3.738-.601 1.474-.922 2.203-.289.659-.647 1.283-.967 1.925-.165.33-.328.661-.494.99-.082.163-.166.326-.247.49-1.657-1.393-3.314-2.786-4.981-4.17-1.581-1.312-3.389-2.372-5.219-3.405 1.598-1.576 3.192-3.154 4.775-4.747.817-.822 1.588-1.697 2.372-2.554.752-.821 1.435-1.716 2.142-2.581.743-.909 1.438-1.868 2.14-2.813.669-.9 1.3-1.831 1.953-2.744.288-.403.477-.806.46-1.327-.005-.168-.033-.334-.08-.492-.094-.316-.265-.605-.499-.83-.237-.228-.532-.382-.845-.448-.441-.26-.945-.411-1.423-.568-.477-.156-.955-.299-1.437-.431-.972-.265-1.964-.435-2.954-.608-.983-.171-1.967-.325-2.946-.524-.509-.102-1.012-.229-1.517-.354-.237-.059-.472-.13-.705-.206.186-.098.371-.195.557-.292 1.004-.523 2.03-.999 3.034-1.522 2.04-1.062 4.064-2.159 6.087-3.258.932-.506 1.874-.993 2.809-1.496.583-.313 1.166-.625 1.747-.938.537-.29 1.058-.615 1.586-.922 1.95-1.133 3.853-2.362 5.771-3.555 1.004-.624 1.999-1.264 2.999-1.896.512-.324 1.011-.672 1.515-1.008.085-.056.169-.113.253-.169-.228 1.058-.415 2.128-.593 3.197zM48.182 161.856c4.625 4.465 9.24 8.942 13.853 13.417.581.562 1.021 1.187 1.229 1.891.204.697.138 1.351-.186 1.789-.643.876-2.246.737-3.453-.398-4.733-4.453-9.3-9.093-13.904-13.692-2.187-2.185-4.479-4.244-6.765-6.303-1.035-.932-2.111-1.827-3.175-2.713-1.475-1.229-2.949-2.457-4.425-3.683-1.159-.963-1.529-2.596-.956-3.374.044-.061.094-.117.148-.167.294-.275.721-.401 1.209-.351.631.066 1.223.397 1.81.885 4.952 4.108 9.937 8.184 14.615 12.699m-5.857 7.531c-3.104-2.833-6.542-5.257-9.945-7.713-.404-.292-.839-.455-1.354-.398-.398.046-.777.224-1.071.499-.054.05-.105.104-.153.161-.616.733-.596 1.991.2 2.567 1.015.733 2.028 1.468 3.04 2.204.731.53 1.47 1.066 2.168 1.639 1.543 1.265 3.091 2.529 4.529 3.914 3.028 2.915 6.016 5.87 9.177 8.644.806.707 2.118.536 2.81-.288.348-.412.519-.954.472-1.483-.049-.534-.306-.963-.691-1.316-3.055-2.814-6.113-5.628-9.182-8.43m11.454-16.106c-7.253-7.265-14.77-14.045-22.253-20.859-.888-.809-1.737-1.414-2.557-1.683-.634-.206-1.141-.165-1.435.11-.054.05-.101.109-.139.176-.503.853.439 3.098 2.192 4.695 2.232 2.033 4.462 4.068 6.692 6.104 1.609 1.468 3.235 2.951 4.821 4.471 3.502 3.358 7.011 6.717 10.424 10.211 7.184 7.354 14.333 14.753 21.638 21.953 1.862 1.836 3.94 2.482 4.504 1.521.286-.478.18-1.316-.281-2.288-.469-.982-1.21-1.928-2.11-2.832-7.162-7.196-14.325-14.394-21.496-21.579m-15.47 23.987c-1.903-1.551-4.16-2.713-6.383-3.908-.264-.142-.579-.178-1.005-.025-.33.119-.672.337-.965.611-.054.05-.106.103-.156.157-.649.698-.896 1.671-.376 1.952.663.357 1.323.716 1.984 1.075.477.259.959.52 1.401.818.976.66 1.956 1.317 2.822 2.092 1.824 1.63 3.609 3.299 5.57 4.791.5.381 1.591-.027 2.32-.812.366-.393.617-.849.69-1.251.072-.404-.045-.684-.28-.878-1.871-1.543-3.741-3.088-5.622-4.622m35.13-20.885c-3.104-2.833-6.542-5.257-9.945-7.713-.404-.292-.839-.455-1.354-.398-.398.046-.777.224-1.071.499-.054.05-.105.104-.153.161-.616.733-.596 1.991.2 2.567 1.015.733 2.028 1.468 3.04 2.204.731.53 1.47 1.066 2.168 1.639 1.543 1.265 3.091 2.529 4.529 3.914 3.028 2.915 6.016 5.87 9.177 8.644.806.707 2.118.536 2.81-.288.348-.412.519-.954.472-1.483-.049-.534-.306-.963-.691-1.316-3.056-2.814-6.114-5.628-9.182-8.43" fill="#F47E52"/><g fill="none" stroke="#363738" stroke-width="3" stroke-linecap="round" stroke-linejoin="round"><path d="M94.223 16.874C96.508 20.677 111.466-.812 114.7 4.57c3.067 5.104-11.409 20.666-11.191 21.029 1.58 2.629 9.791-10.681 11.909-7.156 1.465 2.438-8.119 15.677-8.119 15.677 1.87 3.112 13.853-10.362 14.753-8.865 1.82 3.029-5.328 10.74-4.015 12.925.708 1.179 9.149-7.999 10.253-6.161.309.514-11.64 14.246-10.134 16.753 2.169 3.609 12.855-12.678 15.042-9.038 0 0-20.249 23.77-18.138 27.283 0 0 13.876-10.015 14.617-8.783 2.943 4.899-13.97 20.515-12.902 22.293.166.277 14.499-12.892 16.345-9.821 4.381 7.291-22.691 28.667-21.626 30.439 0 0 20.846-17.137 22.881-13.749 0 0-30.21 19.407-26.077 26.285.441.734 18.6-13.224 19.504-11.719.05.083-27.024 27.564-25.024 30.894 2.103 3.5 27.31-17.771 27.911-16.771 6.575 10.943-36.407 27.717-34.123 31.518 3.552 5.912 21.63-16.59 23.217-13.95 3.43 5.709-30.456 32.78-29.266 34.761 4.403 7.327 16.287-14.302 18.28-10.984"/><path d="M64.436 16.263c2.148 3.575 15.579-9.361 15.579-9.361C81.6 9.54 41.212 39.677 42.694 42.144 53.131 59.513 98.003 1.214 101.401 6.87c6.268 10.432-74.123 54.97-71.088 60.021 4.366 7.265 28.455-17.88 28.801-17.305 5.186 8.63-36.857 37.365-36.455 38.035 3.562 5.928 12.928-15.322 16.263-9.772.161.269-25.497 21.133-22.406 26.277 2.706 4.504 14.309-8.912 14.447-8.681 4.98 8.289-26.548 22.941-23.984 27.207 0 0 28.365-17.737 28.671-17.227.407.677-31.014 25.684-28.197 30.373 2.437 4.056 20.767-12.693 20.862-12.535 0 0-28.114 25.239-24.812 30.735 1.431 2.381 21.055-15.939 22.507-13.523 3.852 6.41-24.612 21.452-20.44 28.396.593.987 18.06-14.656 19.739-11.86.695 1.156-19.44 18.106-16.779 22.534 1.442 2.399 15.903-11.294 16.671-10.017 1.686 2.806-10.034 16.749-9.757 17.209 1.152 1.917 9.765-6.724 10.143-6.095 2.78 4.627-11.569 16.878-8.235 22.426 1.195 1.988 12.198-12.331 14.406-8.656 1.94 3.229-5.91 11.785-4.883 13.495 0 0 16.575-12.767 17.814-10.704 2.028 3.375.144 12.036 1.929 15.007 7.892 13.134 43.408-38.51 48.895-29.379"/></g></svg>
