<?xml version="1.0" encoding="utf-8"?>
<svg version="1.1"
     xmlns="http://www.w3.org/2000/svg"
     xmlns:xlink="http://www.w3.org/1999/xlink"
     xml:space="preserve"
     x="0px" y="0px"
     viewBox="0 0 249.833 217.333" enable-background="new 0 0 249.833 217.333">

  <g id="Helicopter" fill="#363738">
    <path d="M248.453,127.29c-11.78,4.015-23.56,8.029-35.339,12.044c-0.015-0.016-0.031-0.031-0.046-0.047
      c0.142-0.119,0.269-0.264,0.428-0.353c2.648-1.488,5.303-2.963,7.949-4.453c2.761-1.554,5.498-3.152,8.28-4.666
      c1.046-0.57,2.191-0.959,3.331-1.449c-0.128,0.004-0.234,0.006-0.34,0.012c-2.468,0.133-4.613,1.192-6.746,2.316
      c-3.053,1.608-6.128,3.175-9.195,4.755c-3.384,1.743-6.768,3.489-10.162,5.213c-0.298,0.151-0.672,0.152-1.011,0.221
      c-0.687,0.14-1.374,0.276-2.061,0.417c-0.161,0.033-0.325,0.128-0.477,0.109c-1.051-0.135-1.938,0.238-2.778,0.82
      c-0.286,0.198-0.616,0.383-0.951,0.448c-0.677,0.131-1.2,0.469-1.699,0.922c-0.28,0.253-0.65,0.437-1.011,0.566
      c-4.288,1.527-8.767,2.303-13.18,3.336c-6.97,1.63-13.943,3.246-20.914,4.873c-1.496,0.349-5.448,1.303-6.941,1.663
      c0.026,0.06,0.027,0.065,0.053,0.125c4.395-0.941,11.273-2.418,15.67-3.351c5.386-1.143,10.774-2.273,16.162-3.408
      c0.099-0.021,0.201-0.026,0.314,0.012c-4.422,1.766-9.044,2.956-13.478,4.671c0.023,0.068,0.047,0.136,0.07,0.204
      c1.022-0.316,2.039-0.649,3.067-0.946c3.905-1.129,7.808-2.27,11.724-3.361c2.49-0.693,5.008-1.287,7.501-1.97
      c0.491-0.135,0.94-0.453,1.383-0.728c0.98-0.607,1.14-0.431,1.648,0.61c0.041,0.084,0,0,0.479,1.479
      c0.031,0.178,0.041,0.303-0.049,0.351c-0.953,0.514-1.918,1.006-2.885,1.494c-0.147,0.074-0.327,0.145-0.482,0.128
      c-1.06-0.119-1.98,0.411-2.542,1.093c-0.719,0.871-1.703,1.164-2.553,1.726c-1.29,0.852-2.63,1.628-3.941,2.43l-2.619,1.492
      c-0.521,0.347-0.752,0.951-0.636,1.584c0.028,0.153,0.018,0.334-0.038,0.478c-0.271,0.699-0.567,1.389-0.849,2.084
      c-0.261,0.645-0.676,1.143-1.268,1.529c-0.511,0.333-1.02,0.668-1.531,1.001c-0.348-0.303-0.098-0.089-0.348-0.303
      c0,0-1.616,0.732-0.006,0.193c0.164,0.233,0.164,0.233,0.164,0.233c-4.684,3.056-9.364,6.118-14.042,9.182
      c-0.573,0.375-1.087,0.317-1.668-0.04c-3.13-1.926-5.89-4.309-8.531-6.84c-0.522-0.501-0.984-1.064-1.493-1.58
      c-0.12-0.122-0.328-0.151-0.472-0.256c-0.14-0.102-0.249-0.247-0.403-0.406c0.298-0.074,0.511-0.063,0.582-0.158
      c0.13-0.173,0.175-0.41,0.192-0.647c0.273-0.475,0.521-0.967,0.83-1.417c0.166-0.243,0.435-0.415,0.66-0.617
      c0.108-0.097,0.253-0.169,0.327-0.286c0.711-1.123,1.411-2.254,2.137-3.421l-1.007-0.99l-3.618,5.224
      c-0.155,0.218-0.422,0.354-0.614,0.551c-0.087,0.09-0.22,0.718-0.23,0.843c-0.025,0.304-8.704-6.571-8.704-6.571
      c-0.134,0.277-0.419,0.714-0.538,0.96c2.06,1.625,4.088,3.225,6.117,4.826c0.508,0.407,0.86,0.64,0.901,0.879
      c-0.178,0.018-0.463,0.052-0.64-0.124c-0.322,0.286,0,0-0.322,0.286c0.235,0.739-0.122,1.025-0.998,1.705
      c-0.265,0.205-0.558,0.381-0.805,0.608c-0.488,0.446-0.491,0.62-0.042,1.102c0.316,0.339,0.652,0.661,1.003,1.014
      c-0.631,0.941-1.263,1.885-1.907,2.847c0.381,0.285,0.719,0.537,1.077,0.805c0.705-0.932,1.378-1.821,2.074-2.741
      c1.635,1.379,3.231,2.725,4.954,4.178c-0.706,0.303-1.288,0.553-1.945,0.835c0.819,0.771,1.535,1.444,2.325,2.188
      c-1.259,0.377-2.4,0.839-3.585,1.042c-1.418,0.243-2.011,1.127-2.34,2.364c-0.224,0.846-0.463,1.687-0.695,2.531
      c0.015,0.034,0.03,0.069,0.044,0.103c1.979-0.152,3.956-0.344,5.938-0.445c1.841-0.094,3.588-0.472,5.26-1.268
      c0.911-0.434,1.856-0.879,2.835-1.072c2.33-0.46,4.689-0.777,7.039-1.136c0.156-0.024,0.372,0.036,0.493,0.137
      c0.431,0.36,0.814,0.808,1.196,1.217c0.112,0.12,0.214,0.343,0.144,0.475c-0.152,0.289-0.404,0.525-0.632,0.803
      c0.531,0.566,0.201,0.849-0.56,1.563c-0.485,0.338-0.743,0.882-0.582,1.565c0.159,0.675,0.904,1.031,1.536,0.888
      c0.651-0.148,1.059-0.845,0.891-1.518c-0.059-0.236-0.193-0.482-0.164-0.707c0.189-1.482,0.448-2.952,1.042-4.337
      c0.256-0.597,0.706-1.026,1.298-1.261c1.847-0.734,3.704-1.445,5.561-2.154c0.187-0.064,0.394-0.136,0.591-0.204l0.138,0.427
      c0.015,0.046,0.064,0.071,0.11,0.057c0.046-0.015,0.071-0.064,0.057-0.11l-0.139-0.431c3.208-1.107,7.465-2.621,10.508-3.599
      c5.68-1.826,11.313-3.772,16.815-6.086c0.112-0.047,0.233-0.071,0.369-0.112c0.008,0.413-0.051,0.793,0.03,1.149
      c0.389,1.71,2.032,2.237,3.313,1.433c0.77-0.483,1.161-1.374,0.799-2.509c-0.119-0.372-0.042-0.649,0.192-0.871
      c0.356-0.022,0.664-0.041,0.994-0.062c0.024,0.103-0.389,0.764-0.33,1.022c0.167-0.303,0.715-1.027,0.842-1.258
      c-0.241-0.114-0.456-0.216-0.625-0.295c-0.051-0.816,0.556-0.998,1.138-1.225c0.821-0.321,1.633-0.666,2.446-1.006
      c0.53-0.221,1.057-0.452,1.715-0.735c0.269,0.614,0.304,0.769,0.522,1.277c-0.036,0.153-0.06,0.31-0.06,0.476
      c0,1.167,0.946,2.208,2.112,2.208c1.167,0,2.112-1.041,2.112-2.208c0-0.495-0.178-0.934-0.463-1.282
      c0.033-0.742,0.115-1.233,0.7-1.734c1.162-0.994,2.573-1.53,3.847-2.312c0.074-0.046,0.18-0.08,0.262-0.067
      c0.991,0.151,1.401-0.07,1.804-0.924c0.08-0.169,0.28-0.286,0.435-0.416c0.801-0.674,1.684-1.272,2.381-2.04
      c0.495-0.545,0.87-1.279,1.072-1.993c0.339-1.198-0.186-2-1.373-2.368c-0.482-0.149-0.984-0.236-1.477-0.351
      c-0.128-0.03-0.277-0.029-0.379-0.098c-0.429-0.289-0.843-0.6-1.293-0.924c-0.377,0.576-0.806,0.406-1.256,0.146
      c-1.154-0.664-2.287-1.372-3.483-1.95c-0.112-0.054-0.232-0.094-0.358-0.125l0.185-0.32c0.01-0.017,0.004-0.039-0.013-0.049
      s-0.039-0.004-0.049,0.013l-0.197,0.341c-0.386-0.076-0.809-0.083-1.198-0.065c-0.867,0.041-1.728,0.191-2.659,0.303
      c0.145-0.242,0.286-0.413,0.415-0.629c1.388-0.337-0.051-0.083-0.07-0.103c-0.176,0.168-0.338,0.33-0.521,0.509
      c-0.276,0.269-0.433,0.359-0.754,0.179c-0.326-0.183-0.671-0.331-1.005-0.5c-0.19-0.097-0.093-0.487-0.505-0.386
      c-0.265,0.065-0.264,0.069-0.306,0.092c-0.402,0.222,0.237,0.233-0.871,0.395c-2.066,0.357-4.133,0.715-6.203,1.046
      c-0.45,0.072-0.916,0.036-1.495,0.054c0.341-0.77,0.63-1.424,0.92-2.078c-0.722,0.851-1.35,1.439-1.779,2.502
      c-0.546,0.139-1.128,0.287-1.77,0.451c-0.304-0.96-0.6-1.899-0.914-2.89c0.768,0.241,0.408-0.435,0.665-0.56
      c0.489-0.26,0.978-0.521,1.548-0.825c-0.048,0.204-0.07,0.3-0.094,0.4c0.046,0.007,0.083,0.025,0.11,0.015
      c5.935-2.174,11.868-4.353,17.804-6.524c6.306-2.306,12.614-4.608,18.924-6.904c1.017-0.37,2.054-0.684,3.071-1.054
      c0.253-0.092,0.463-0.303,0.692-0.46C248.501,127.409,248.477,127.349,248.453,127.29z M172.466,178.175
      c-0.378-0.528-0.659-0.92-1.025-1.433c0.62-0.06,1.033-0.1,1.657-0.16C172.868,177.16,172.695,177.595,172.466,178.175z
       M201.322,147.524c-0.223,0.13-0.603,0.359-0.882-0.267c-0.055-0.179-0.561-1.657-0.57-1.838c-0.008-0.183,0.065-0.369,0.102-0.554
      c0.209,0.048,0.465,0.038,0.618,0.158c0.272,0.214,0.379,0.127,0.561-0.107c0.12-0.155,0.35-0.268,0.547-0.299
      c0.079-0.013,0.239,0.223,0.299,0.377c0.25,0.641,0.25,0.641,0.348,0.97c0.118,0.398,0.256,0.79,0.302,1.055
      C201.329,147.132,201.564,147.383,201.322,147.524z M223.004,157.855c0.026,0.035,0.052,0.07,0.079,0.105
      c-0.049,0.627-0.223,0.934-0.321,1.06c-0.22-0.074-0.454-0.121-0.701-0.121c-0.684,0-1.286,0.31-1.672,0.798
      c-0.052-0.159-0.146-0.41-0.214-0.628C221.14,158.655,222.072,158.255,223.004,157.855z M212.739,161.97
      c-0.028,0.267-0.049,0.467-0.076,0.734c-0.218-0.175-0.38-0.305-0.592-0.475C212.321,162.133,212.488,162.068,212.739,161.97z
       M206.466,146.334c-0.8-0.198-1.543-0.484-2.166,0.36l-0.745-2.262c-0.119-0.352-0.042-0.511,0.293-0.628
      c0.362-0.127,0.7-0.336,1.069-0.425c0.186-0.045,0.558,0.043,0.604,0.163C205.861,144.429,206.139,145.339,206.466,146.334z"/>
    <path id="IFR" display="none" d="M245.194,146.639c-0.065-0.156-0.245-0.229-0.4-0.163l-0.89,0.363
      c-0.521-0.264-0.521-0.264-0.802-0.146l-3.405,1.435l-0.159-0.375c-0.009-0.021-0.034-0.031-0.055-0.022l-0.266,0.113
      c-0.021,0.009-0.032,0.034-0.022,0.055l0.159,0.374l-7.49,3.157c-0.382,0.161-0.562,0.601-0.401,0.984
      c0.161,0.382,0.601,0.562,0.984,0.401l11.239-4.737c0.281-0.118,0.281-0.118,0.457-0.676l0.89-0.363
      C245.187,146.974,245.26,146.794,245.194,146.639z"/>
  </g>

  <g id="Text" fill="#363738" stroke="#363738" stroke-miterlimit="10">
    <path d="M46.785,197.648c-0.126,0-0.486,0.094-1.081,0.282
      c-0.596,0.188-0.956,0.251-1.081,0.188c-0.126,0-0.329-0.141-0.611-0.423c-0.282-0.282-0.423-0.484-0.423-0.611
      c0.251-0.438-0.028-0.36,0.379-0.58s1.438-0.797,1.877-0.924c0.438-0.125,0.876-0.266,1.316-0.423
      c0.438-0.155,0.846-0.391,1.222-0.705c1.316-1.128,2.646-2.24,3.995-3.337c1.347-1.096,2.757-2.068,4.23-2.914
      c1.472-0.846,3.039-1.519,4.7-2.021c1.66-0.501,3.431-0.752,5.311-0.752c0.752,0,1.269,0.094,1.551,0.281
      c0.282,0.188,0.423,0.627,0.423,1.316c0,0.563-0.314,1.113-0.94,1.645c-0.627,0.533-1.332,1.004-2.115,1.41
      c-0.784,0.408-1.567,0.769-2.35,1.081c-0.784,0.314-1.332,0.533-1.645,0.658c-0.188,0.126-0.721,0.361-1.598,0.705
      c-0.878,0.345-1.833,0.721-2.867,1.128c-1.034,0.408-1.99,0.799-2.867,1.175c-0.878,0.376-1.41,0.597-1.598,0.658
      c-0.502,0.188-0.832,0.314-0.987,0.376c-0.157,0.063-0.235,0.314-0.235,0.752c0,0.376,0.172,0.644,0.517,0.799
      c0.344,0.157,0.752,0.251,1.222,0.282c0.47,0.032,0.924,0.032,1.363,0c0.438-0.031,0.752-0.047,0.94-0.047
      c3.634,0,7.252-0.423,10.857-1.27c3.603-0.846,5.265-0.963,8.775-1.778c0.125,0-1.807,0.725-1.399,0.568
      c0.407-0.156-0.73,0-0.604,0c0.063,0,0.478,0.104,0.604,0.229c0.125,0.126,0.244-0.089,0.244-0.027
      c-1.316,1.065,2.015,0.506-0.242,1.289c-2.256,0.784-4.653,1.442-7.191,1.974c-2.538,0.533-4.982,0.94-7.332,1.223
      s-4.277,0.423-5.781,0.423c-0.627,0-1.254-0.141-1.88-0.423c-0.627-0.282-1.222-0.579-1.786-0.894
      c-0.564-0.313-1.066-0.61-1.504-0.893c-0.439-0.282-0.815-0.423-1.128-0.423H46.785z M62.43,187.713
      c-1.102,0.192-2.235,0.538-3.398,1.033c-1.166,0.497-2.275,1.137-3.328,1.92c-1.055,0.786-1.993,1.672-2.816,2.662l0.295,0.062
      c0.655,0.137,1.554,0.009,2.698-0.385c0.496-0.171,0.496-0.041,3.642-1.458c1.284-0.576,2.545-1.21,3.786-1.903
      c1.239-0.693,2.208-1.228,2.904-1.613c-0.132-0.028-0.29-0.086-0.476-0.179c-0.186-0.09-0.313-0.145-0.377-0.158
      C64.507,187.514,63.53,187.522,62.43,187.713z"/>
    <path d="M92.618,189.719
      c-0.157-0.658-0.346-1.316-0.564-1.974c-0.22-0.658-0.486-1.237-0.799-1.739c-0.314-0.501-0.658-0.752-1.033-0.752
      c-1.066,0-2.115,0.47-3.149,1.41c-1.034,0.939-1.927,1.724-2.679,2.35c-0.69,0.564-1.584,1.27-2.68,2.115
      c-1.097,0.846-2.146,1.661-3.148,2.444c-0.954,0.745-2.132,1.644-3.538,2.7c-0.14,0.105-0.317,0.166-0.492,0.166h-0.952
      c-0.306-0.051-0.04-0.469,0.047-0.799c0.104-0.394,0.08-0.673,0.142-0.799c1.442-1.189,2.711-2.192,3.807-3.008
      c1.096-0.813,2.271-1.707,3.524-2.679s2.459-1.896,3.619-2.773c1.159-0.877,2.131-1.612,2.914-2.209
      c0.783-0.595,1.27-0.924,1.457-0.987c0.502-0.249,0.908-0.406,1.223-0.47c0.313-0.062,0.72-0.094,1.222-0.094
      c0.813,0,1.41,0.392,1.786,1.175c0.376,0.784,0.689,1.645,0.939,2.585s0.532,1.802,0.847,2.585
      c0.313,0.784,0.877,1.175,1.692,1.175c0.188,0,0.281-0.03,0.281-0.094c0.437-0.188,1.236-0.531,2.397-1.034
      c1.159-0.501,2.381-1.034,3.666-1.598c1.284-0.564,2.505-1.096,3.665-1.599c1.16-0.5,1.989-0.846,2.492-1.033
      c0.5-0.188,0.86-0.329,1.08-0.424c0.219-0.094,0.549-0.141,0.987-0.141c0.501,0,0.813,0.126,0.94,0.376
      c0.125,0.251,0.188,0.597,0.188,1.034c0,0.439-0.141,0.784-0.423,1.034c-0.282,0.251-0.61,0.455-0.987,0.61
      c-0.375,0.157-0.783,0.282-1.222,0.376c-0.438,0.095-0.815,0.204-1.128,0.329c-0.314,0.127-0.879,0.393-1.691,0.799
      c-0.816,0.409-1.678,0.832-2.586,1.27c-0.908,0.439-1.755,0.862-2.537,1.269c-0.785,0.409-1.332,0.705-1.646,0.894
      c-0.063,0.126-0.095,0.22-0.095,0.282c0,0.502,0.58,0.878,1.74,1.128c1.158,0.251,2.411,0.517,3.76,0.799
      c1.347,0.282,2.6,0.658,3.76,1.128c0.408,0.165,0.743,0.356,1.008,0.572c0.592,0.484,0.232,1.45-0.532,1.437
      c-0.794-0.014-1.689-0.041-2.685-0.082c-1.548-0.061-2.789-0.215-3.725-0.46c-0.025-0.006-0.042-0.012-0.066-0.02
      c-0.2-0.066-0.598-0.204-1.192-0.413c-0.627-0.219-1.285-0.438-1.974-0.658c-0.69-0.219-1.349-0.438-1.974-0.658
      c-0.513-0.179-0.879-0.306-1.098-0.381c-0.084-0.029-0.17-0.042-0.258-0.042H96.05c-1.066,0-2.195,0.268-3.385,0.799
      c-1.191,0.533-2.365,1.175-3.525,1.927s-2.24,1.566-3.242,2.444c-1.004,0.877-1.759,1.54-1.812,1.497l0,0l-1.329-1.439
      c-0.071-0.076,0.131-0.407,0.248-0.568c0.363-0.499,0.743-0.914,1.012-1.183c0.313-0.313,0.658-0.657,1.035-1.033
      c0.375-0.376,0.688-0.658,0.939-0.847c0.313-0.313,0.846-0.688,1.598-1.128c0.752-0.438,1.52-0.907,2.303-1.41
      c0.783-0.5,1.473-0.986,2.068-1.457c0.596-0.47,0.893-0.893,0.893-1.269C92.853,190.864,92.775,190.377,92.618,189.719z"/>
    <path d="M115.52,209.077
      c0.531-1.097,1.127-2.194,1.785-3.29c0.658-1.097,1.27-2.209,1.834-3.337c0.563-1.128,0.846-2.319,0.846-3.572v-0.563
      c-0.564-0.063-1.254-0.157-2.068-0.282c-0.814-0.126-1.583-0.313-2.303-0.564c-0.721-0.249-1.332-0.61-1.833-1.08
      c-0.503-0.471-0.752-1.112-0.752-1.928c0-1.629,0.329-2.726,0.987-3.29c0.658-0.563,1.77-0.846,3.336-0.846
      c0.125,0,0.471,0,1.035,0c0.563,0,0.939,0.032,1.127,0.094c0.502,0.251,0.83,0.644,0.987,1.175
      c0.155,0.533,0.282,1.066,0.376,1.599c0.094,0.533,0.235,1.003,0.424,1.41c0.188,0.408,0.594,0.61,1.221,0.61
      c1.065,0,1.959-0.391,2.68-1.175c0.72-0.782,1.316-1.691,1.786-2.726s0.846-2.083,1.128-3.149
      c0.281-1.064,0.578-1.911,0.893-2.538c0.313-0.688,0.752-1.519,1.316-2.491c0.564-0.971,0.846-1.927,0.846-2.866v-0.471
      c-0.814,0.314-1.613,0.564-2.396,0.752c-0.785,0.188-1.614,0.282-2.491,0.282c-0.314,0-0.644-0.015-0.987-0.047
      c-0.345-0.031-0.517-0.266-0.517-0.705c0-0.438,0.391-0.799,1.175-1.081c0.783-0.282,1.691-0.578,2.727-0.893
      c1.033-0.313,2.082-0.736,3.148-1.27c1.064-0.531,1.88-1.33,2.443-2.396c0.564-0.94,1.176-2.005,1.834-3.196
      c0.658-1.189,1.394-2.334,2.209-3.431c0.813-1.096,1.738-2.021,2.772-2.773s2.24-1.128,3.619-1.128
      c0.438,0,0.767,0.268,0.987,0.799c0.219,0.533,0.328,0.956,0.328,1.27c0,1.566-0.375,2.899-1.127,3.995
      c-0.752,1.097-1.662,2.084-2.727,2.961c-1.066,0.878-2.178,1.724-3.337,2.538c-1.16,0.814-2.147,1.724-2.961,2.726
      c-0.978,1.258-0.61,0.749-1.739,2.961c-0.721,1.41-1.426,2.914-2.115,4.512c-0.689,1.599-1.285,3.103-1.785,4.513
      c-0.502,1.409-0.752,2.366-0.752,2.866c0,0.063,0.014,0.142,0.047,0.235c0.031,0.094,0.047,0.174,0.047,0.235l19.707-6.069
      l0.241,0.03c-0.67-0.129,0.374,0.041,1.436,0.21c0.444,0.07-0.747,0.457-1.238,0.672c-0.621,0.273-0.893,0.362-1.3,0.549
      c-0.408,0.188-0.704,0.314-0.893,0.376c-0.69,0.314-1.943,0.799-3.761,1.457c-1.818,0.658-3.729,1.349-5.733,2.068
      c-2.007,0.721-3.917,1.396-5.733,2.021c-1.818,0.628-3.103,1.066-3.854,1.316l-1.034,1.128c-0.188,0.439-0.502,1.236-0.939,2.396
      c-0.439,1.159-0.91,2.381-1.41,3.666c-0.503,1.284-0.987,2.506-1.457,3.666c-0.471,1.159-0.799,1.958-0.987,2.397
      c-0.126,0.376-0.345,0.94-0.658,1.692s-0.69,1.472-1.128,2.161c-0.439,0.689-0.926,1.3-1.457,1.833
      c-0.533,0.532-1.081,0.799-1.645,0.799c-1.004,0-1.756-0.313-2.256-0.939c-0.503-0.627-0.752-1.41-0.752-2.35
      C114.721,211.347,114.987,210.172,115.52,209.077z M117.117,195.118c0.595,0.126,1.143,0.188,1.645,0.188c0.564,0,0.877,0,0.94,0
      c0-0.564-0.032-1.176-0.095-1.833c-0.063-0.658-0.438-0.987-1.127-0.987c-0.564,0-1.082,0.157-1.551,0.47
      c-0.471,0.314-0.705,0.784-0.705,1.41C116.225,194.742,116.522,194.993,117.117,195.118z M117.722,208.894
      c0,0-0.092,0.255-0.188,0.565c-0.096,0.308-0.182,0.448-0.182,0.512c-0.063,0.188-0.156,0.625-0.281,1.315
      c-0.127,0.688-0.221,1.128-0.282,1.316c0.062,0,0.155,0.03,0.282,0.094c0.376,0,0.908-0.597,1.598-1.786
      c0.689-1.191,1.363-2.57,2.021-4.136c0.658-1.567,1.236-3.103,1.738-4.606s0.752-2.601,0.752-3.29v-1.128
      c-0.563,0.125-1.127,0.329-1.691,0.611s0.08,0.309-0.376,1.551l-3.196,8.46L117.722,208.894z M141.652,167.576
      c-0.597,0.439-1.128,0.956-1.599,1.551c-0.47,0.597-0.846,1.238-1.127,1.928c-0.283,0.689-0.424,1.315-0.424,1.88v0.47
      c0.376-0.25,0.83-0.626,1.363-1.128c0.531-0.501,1.064-1.034,1.598-1.598c0.531-0.564,0.987-1.176,1.363-1.833
      c0.376-0.658,0.564-1.301,0.564-1.928C142.826,166.917,142.246,167.138,141.652,167.576z"/>
    <path d="M141.047,196.246
      c0.251-0.376,0.596-0.673,1.033-0.893c0.439-0.219,0.91-0.391,1.41-0.518c0.503-0.125,1.002-0.249,1.504-0.376
      c0.502-0.125,0.94-0.249,1.316-0.376c1.378-0.501,2.616-0.971,3.713-1.41c1.096-0.438,2.162-0.893,3.196-1.362
      c1.034-0.471,2.099-0.987,3.196-1.552c1.096-0.563,2.334-1.222,3.713-1.974c0.313-0.188,0.719-0.501,1.222-0.939
      c0.501-0.438,1.034-0.861,1.599-1.27c0.563-0.407,1.143-0.783,1.738-1.128c0.596-0.344,1.111-0.517,1.551-0.517
      c0.877,0,1.316,0.47,1.316,1.409v0.282c-0.439,0.376-1.003,0.879-1.691,1.504c-0.691,0.628-1.363,1.302-2.021,2.021
      c-0.658,0.721-1.285,1.457-1.88,2.209c-0.343,0.432-0.628,0.864-0.856,1.295c-0.23,0.436,0.105,0.96,0.598,0.96h0.036
      c1.999,0,4.002-0.241,5.902-0.859c1.448-0.471,2.929-0.742,4.445-0.814c0.48-0.023,0.836,0.486,0.64,0.926
      c-0.25,0.56-0.752,0.966-1.506,1.217c-0.752,0.251-1.645,0.564-2.68,0.94c-1.033,0.376-2.114,0.721-3.242,1.034
      s-2.256,0.596-3.385,0.846c-1.127,0.251-2.162,0.376-3.102,0.376c-0.689,0-1.348-0.219-1.974-0.658
      c-0.628-0.438-0.94-1.002-0.94-1.691v-0.282c0-0.062,0.078-0.282,0.235-0.658c0.155-0.376,0.329-0.783,0.517-1.222
      c0.188-0.438,0.36-0.83,0.518-1.176c0.155-0.343,0.266-0.578,0.328-0.704V190.7v-0.282c-0.375,0.188-1.002,0.503-1.879,0.94
      c-0.879,0.439-1.834,0.909-2.867,1.41c-1.034,0.502-2.007,0.972-2.914,1.41c-0.909,0.438-1.551,0.752-1.928,0.939
      c-0.689,0.314-1.583,0.769-2.679,1.363c-1.096,0.596-2.052,0.893-2.866,0.893c-0.313,0-0.611-0.047-0.894-0.141
      s-0.423-0.36-0.423-0.799V196.246z"/>
    <path d="M173.853,196.904l17.483-8.46
      c0.063-0.062,0.297-0.282,0.705-0.658c0.407-0.376,0.705-0.688,0.894-0.939c0.188-0.188,0.673-0.72,1.457-1.599
      c0.782-0.877,1.612-1.833,2.491-2.867c0.877-1.033,1.723-1.988,2.537-2.866c0.814-0.877,1.316-1.441,1.504-1.692
      c0.752-0.877,1.629-1.786,2.633-2.726c1.002-0.94,2.068-1.801,3.195-2.585c1.129-0.783,2.318-1.425,3.572-1.928
      c1.253-0.501,2.538-0.752,3.854-0.752c0.689,0,1.223,0.079,1.599,0.235c0.376,0.157,0.563,0.611,0.563,1.363
      c0,1.63-0.61,3.181-1.832,4.652c-1.223,1.474-2.759,2.884-4.606,4.23c-1.849,1.348-3.839,2.632-5.969,3.854
      c-2.132,1.223-4.122,2.397-5.97,3.525c-1.849,1.128-3.383,2.225-4.605,3.29c-0.815,0.711-1.358,1.392-1.629,2.047
      c-0.189,0.456,0.148,0.962,0.642,0.958c2.305-0.018,4.435-0.111,6.392-0.279c2.193-0.188,4.324-0.531,6.393-1.034
      c2.068-0.5,4.137-1.175,6.204-2.021c2.02-0.826,4.129-1.877,6.329-3.152c0.101-0.059,0.784-0.072,0.737,0.211l-0.049,0.166
      c-0.879,1.567-1.91,2.479-4.102,3.668c-2.194,1.191-4.606,2.194-7.237,3.009c-2.633,0.814-5.25,1.426-7.85,1.833
      c-2.602,0.408-4.686,0.61-6.251,0.61c-0.314,0-0.94-0.015-1.88-0.047c-0.94-0.031-1.567-0.047-1.881-0.047
      c-0.814-0.125-1.332-0.611-1.551-1.457c-0.141-0.542-0.262-1.039-0.364-1.492c-0.093-0.415-0.494-0.618-0.893-0.471
      c-0.863,0.319-1.791,0.769-2.784,1.351c-1.285,0.752-2.586,1.521-3.901,2.304c-1.316,0.782-2.538,1.472-3.666,2.067
      c-0.308,0.163-0.6,0.303-0.876,0.421c-15.515,6.662-16.377,4.962-1.331-2.701C173.823,196.919,173.838,196.911,173.853,196.904z
       M210.862,173.961c-1.473,0.846-2.852,1.88-4.135,3.102c-1.285,1.222-2.445,2.491-3.479,3.807
      c-1.034,1.316-1.803,2.477-2.303,3.479c0.061,0,0.155,0.016,0.281,0.047c0.125,0.032,0.219,0.047,0.282,0.047
      c0.877,0,2.052-0.454,3.524-1.363c1.473-0.907,2.962-1.988,4.466-3.242c1.504-1.253,2.851-2.538,4.042-3.854
      c1.189-1.316,1.941-2.412,2.256-3.29h-0.752C213.729,172.691,212.335,173.114,210.862,173.961z"/>
  </g>

  <g id="Arrow" fill="#F47E52">
    <path d="M98.032,72.19c-0.011-0.037-0.023-0.073-0.036-0.11c-0.184-0.505-0.586-0.852-1.091-0.933
      c-0.213-0.035-0.527-0.044-0.733,0.045c-0.19,0.083-0.371,0.179-0.556,0.271c-0.627,0.314-1.193,0.77-1.789,1.145
      c-0.52,0.328-1.034,0.672-1.563,0.984c-0.565,0.334-1.132,0.662-1.699,0.993c-0.881,0.515-1.776,1.007-2.673,1.489
      c-1.125,0.604-2.251,1.205-3.38,1.8c-0.875,0.461-1.761,0.897-2.646,1.336c-2.245,1.034-4.489,2.07-6.718,3.14
      c-2.115,1.015-4.233,2.015-6.37,2.972c-1.173,0.526-2.332,1.077-3.479,1.661c-0.239,0.121-0.478,0.245-0.712,0.376
      c-0.156,0.088-0.306,0.18-0.45,0.289c-0.603,0.456-1.05,1.172-1.022,1.984c0.03,0.901,0.569,1.674,1.322,2.061
      c0.31,0.159,0.637,0.281,0.961,0.4c0.253,0.093,0.506,0.185,0.761,0.273c0.498,0.172,0.998,0.341,1.507,0.469
      c0.623,0.157,1.24,0.294,1.869,0.418c1.063,0.209,2.141,0.341,3.214,0.476c1.082,0.137,2.178,0.26,3.243,0.502
      c0.189,0.043,0.376,0.091,0.564,0.135c-0.827,0.943-1.618,1.924-2.407,2.904c-0.668,0.829-1.346,1.649-2.023,2.472
      c-0.625,0.762-1.307,1.473-1.968,2.201c-0.786,0.868-1.613,1.69-2.431,2.523c-0.76,0.776-1.528,1.541-2.296,2.307
      c-0.728,0.726-1.449,1.454-2.207,2.147c-0.857,0.784-1.716,1.567-2.573,2.351c-0.76,0.608-1.521,1.216-2.282,1.823
      c-0.571,0.458-1.13,0.941-1.732,1.351c-1.616,1.1-3.226,2.204-4.866,3.264c-2.116,1.367-4.233,2.735-6.35,4.102
      c-0.854,0.552-1.726,1.073-2.59,1.607c-1.331,0.823-2.661,1.641-4.008,2.435c-0.258,0.152-0.471,0.407-0.62,0.694
      c-0.122,0.039-0.243,0.093-0.36,0.167c-0.47,0.3-0.826,0.912-0.776,1.507c0.032,0.38,0.104,0.758,0.328,1.065
      c0.074,0.101,0.149,0.201,0.224,0.3c0.238,0.333,0.46,0.672,0.708,0.998c0.14,0.184,0.286,0.363,0.429,0.544
      c0.36,0.492,0.71,0.991,1.111,1.448c0.4,0.457,0.785,0.941,1.225,1.356c0.424,0.399,0.833,0.82,1.268,1.205
      c0.457,0.406,0.919,0.804,1.373,1.214c0.823,0.743,1.681,1.432,2.543,2.122c1.01,0.81,2.014,1.624,3.048,2.401
      c0.431,0.323,0.889,0.614,1.336,0.911c0.489,0.323,0.985,0.617,1.501,0.888c0.912,0.48,1.899,0.755,2.878,1.031
      c0.628,0.176,1.269,0.314,1.904,0.461c0.809,0.186,1.635-0.313,1.869-1.155c0.505-0.376,1.007-0.755,1.495-1.155
      c0.63-0.515,1.259-1.031,1.888-1.546c1.206-0.987,2.438-1.946,3.603-2.99c1.265-1.135,2.516-2.289,3.693-3.527
      c1.148-1.207,2.244-2.469,3.276-3.788c0.549-0.702,1.079-1.421,1.592-2.153c0.49-0.7,0.991-1.399,1.448-2.124
      c0.271-0.431,0.543-0.861,0.815-1.292c0.441-0.697,0.88-1.395,1.321-2.092c0.166-0.264,0.331-0.525,0.482-0.799
      c0.676-1.228,1.351-2.456,2.028-3.685c0.221-0.401,0.415-0.822,0.621-1.233c0.357-0.711,0.715-1.422,1.072-2.132
      c0.509-1.012,0.964-2.056,1.441-3.085c0.07-0.151,0.126-0.309,0.187-0.463c0.147-0.374,0.294-0.748,0.442-1.122
      c0.228-0.58,0.435-1.166,0.638-1.756c0.198-0.575,0.398-1.15,0.587-1.73c0.097,0.06,0.194,0.117,0.289,0.18
      c0.281,0.222,0.556,0.451,0.825,0.69c0.24,0.213,0.459,0.44,0.671,0.679c0.549,0.774,1.015,1.613,1.477,2.446
      c0.254,0.456,0.503,0.915,0.763,1.368c0.238,0.413,0.474,0.839,0.753,1.223c0.129,0.177,0.257,0.359,0.406,0.517
      c0.19,0.201,0.41,0.353,0.637,0.504c0.428,0.285,0.995,0.266,1.461,0.138c0.341-0.094,0.653-0.3,0.89-0.576
      c0.466-0.543,0.555-1.317,0.659-2.011c0.09-0.602,0.164-1.199,0.226-1.805c0.123-1.208,0.183-2.423,0.255-3.636
      c0.14-2.356,0.349-4.705,0.552-7.056c0.202-2.329,0.398-4.659,0.591-6.988c0.116-1.151,0.216-2.307,0.357-3.455
      c0.146-1.195,0.294-2.389,0.44-3.584c0.303-2.494,0.54-4.996,0.887-7.483c0.173-1.234,0.383-2.464,0.489-3.708
      C98.116,73.252,98.186,72.707,98.032,72.19z M60.927,138.425c-0.616,0.507-1.231,1.015-1.847,1.522
      c-0.424,0.349-0.859,0.682-1.298,1.01c-0.039-0.013-0.077-0.028-0.118-0.037c-0.024-0.006-0.048-0.012-0.072-0.018
      c-0.088-0.035-0.179-0.058-0.273-0.067c-0.461-0.113-0.92-0.231-1.378-0.35c-0.324-0.084-0.641-0.206-0.959-0.317
      c-0.778-0.352-1.491-0.801-2.198-1.296c-0.441-0.309-0.878-0.626-1.321-0.93c-0.96-0.658-1.884-1.37-2.81-2.078
      c-0.798-0.631-1.573-1.29-2.289-2.025c-0.773-0.792-1.527-1.601-2.276-2.417c-0.369-0.402-0.754-0.779-1.138-1.164
      c-0.387-0.389-0.806-0.758-1.161-1.179c-0.078-0.093-0.156-0.187-0.235-0.281c2.421-1.432,4.814-2.916,7.197-4.418
      c0.763,0.499,1.524,0.998,2.285,1.499c0.578,0.38,1.164,0.764,1.71,1.183c1.207,0.926,2.419,1.851,3.525,2.888
      c2.328,2.184,4.619,4.405,7.075,6.456c0.004,0.003,0.009,0.005,0.014,0.008c-0.096,0.08-0.19,0.162-0.287,0.242
      C62.358,137.246,61.642,137.836,60.927,138.425z M69.453,130.425c-1.047,1.211-2.164,2.344-3.306,3.45
      c-0.075-0.122-0.163-0.236-0.275-0.335c-2.363-2.094-4.727-4.19-7.101-6.274c-2.095-1.838-4.439-3.387-6.793-4.92
      c0.123-0.078,0.247-0.156,0.37-0.234c1.01-0.637,2.038-1.251,3.033-1.915c0.569-0.38,1.139-0.76,1.708-1.139
      c0.491,0.307,0.982,0.613,1.472,0.921c0.538,0.337,1.083,0.678,1.589,1.054c1.118,0.831,2.24,1.66,3.256,2.601
      c2.139,1.981,4.24,4.001,6.507,5.85c0.064,0.052,0.136,0.091,0.212,0.125C69.901,129.881,69.683,130.159,69.453,130.425z
       M73.935,124.314c-0.197,0.295-0.389,0.594-0.596,0.881c-0.248,0.342-0.494,0.686-0.744,1.026c-0.08,0.109-0.161,0.218-0.241,0.326
      c-2.14-1.863-4.282-3.728-6.432-5.581c-1.776-1.53-3.766-2.816-5.78-4.072c0.449-0.354,0.898-0.707,1.347-1.06l1.348-1.059
      c0.419-0.331,0.811-0.728,1.209-1.087c0.239-0.215,0.479-0.431,0.718-0.647c0.357,0.203,0.714,0.405,1.071,0.609
      c0.477,0.272,0.959,0.546,1.404,0.855c0.981,0.684,1.966,1.366,2.843,2.16c1.831,1.655,3.625,3.346,5.581,4.874
      C75.086,122.463,74.514,123.39,73.935,124.314z M94.599,77.529c-0.265,1.596-0.431,3.208-0.613,4.816
      c-0.256,2.263-0.583,4.515-0.825,6.78c-0.263,2.455-0.475,4.914-0.696,7.374c-0.132,1.392-0.266,2.785-0.398,4.177
      c-0.097,1.007-0.218,2.011-0.316,3.017c-0.089,0.912-0.169,1.824-0.26,2.736c-0.085-0.159-0.172-0.317-0.26-0.474
      c-0.513-0.917-1.133-1.778-1.896-2.479c-0.49-0.449-1.016-0.84-1.555-1.22c-0.355-0.249-0.737-0.446-1.119-0.643
      c-0.543-0.279-1.137-0.355-1.72-0.162c-0.568,0.189-1.048,0.613-1.324,1.172c-0.097,0.197-0.164,0.406-0.203,0.62
      c-0.084,0.103-0.142,0.224-0.181,0.364c-0.189,0.677-0.38,1.354-0.562,2.033c-0.095,0.356-0.191,0.712-0.287,1.066
      c-0.077,0.287-0.173,0.569-0.262,0.851c-0.101,0.294-0.202,0.588-0.303,0.881c-0.258,0.75-0.525,1.494-0.813,2.232
      c-0.25,0.641-0.519,1.275-0.778,1.912c-0.3,0.738-0.601,1.474-0.922,2.203c-0.289,0.659-0.647,1.283-0.967,1.925
      c-0.165,0.33-0.328,0.661-0.494,0.99c-0.082,0.163-0.166,0.326-0.247,0.49c-1.657-1.393-3.314-2.786-4.981-4.17
      c-1.581-1.312-3.389-2.372-5.219-3.405c1.598-1.576,3.192-3.154,4.775-4.747c0.817-0.822,1.588-1.697,2.372-2.554
      c0.752-0.821,1.435-1.716,2.142-2.581c0.743-0.909,1.438-1.868,2.14-2.813c0.669-0.9,1.3-1.831,1.953-2.744
      c0.288-0.403,0.477-0.806,0.46-1.327c-0.005-0.168-0.033-0.334-0.08-0.492c-0.094-0.316-0.265-0.605-0.499-0.83
      c-0.237-0.228-0.532-0.382-0.845-0.448c-0.441-0.26-0.945-0.411-1.423-0.568c-0.477-0.156-0.955-0.299-1.437-0.431
      c-0.972-0.265-1.964-0.435-2.954-0.608c-0.983-0.171-1.967-0.325-2.946-0.524c-0.509-0.102-1.012-0.229-1.517-0.354
      c-0.237-0.059-0.472-0.13-0.705-0.206c0.186-0.098,0.371-0.195,0.557-0.292c1.004-0.523,2.03-0.999,3.034-1.522
      c2.04-1.062,4.064-2.159,6.087-3.258c0.932-0.506,1.874-0.993,2.809-1.496c0.583-0.313,1.166-0.625,1.747-0.938
      c0.537-0.29,1.058-0.615,1.586-0.922c1.95-1.133,3.853-2.362,5.771-3.555c1.004-0.624,1.999-1.264,2.999-1.896
      c0.512-0.324,1.011-0.672,1.515-1.008c0.085-0.056,0.169-0.113,0.253-0.169C94.964,75.39,94.777,76.46,94.599,77.529z"/>
  </g>

  <g id="Dashes" fill="#F47E52">
    <path d="M48.182,161.856c4.625,4.465,9.24,8.942,13.853,13.417c0.581,0.562,1.021,1.187,1.229,1.891
      c0.204,0.697,0.138,1.351-0.186,1.789c-0.643,0.876-2.246,0.737-3.453-0.398c-4.733-4.453-9.3-9.093-13.904-13.692
      c-2.187-2.185-4.479-4.244-6.765-6.303c-1.035-0.932-2.111-1.827-3.175-2.713c-1.475-1.229-2.949-2.457-4.425-3.683
      c-1.159-0.963-1.529-2.596-0.956-3.374c0.044-0.061,0.094-0.117,0.148-0.167c0.294-0.275,0.721-0.401,1.209-0.351
      c0.631,0.066,1.223,0.397,1.81,0.885C38.519,153.265,43.504,157.341,48.182,161.856 M42.325,169.387
      c-3.104-2.833-6.542-5.257-9.945-7.713c-0.404-0.292-0.839-0.455-1.354-0.398c-0.398,0.046-0.777,0.224-1.071,0.499
      c-0.054,0.05-0.105,0.104-0.153,0.161c-0.616,0.733-0.596,1.991,0.2,2.567c1.015,0.733,2.028,1.468,3.04,2.204
      c0.731,0.53,1.47,1.066,2.168,1.639c1.543,1.265,3.091,2.529,4.529,3.914c3.028,2.915,6.016,5.87,9.177,8.644
      c0.806,0.707,2.118,0.536,2.81-0.288c0.348-0.412,0.519-0.954,0.472-1.483c-0.049-0.534-0.306-0.963-0.691-1.316
      C48.452,175.003,45.394,172.189,42.325,169.387 M53.779,153.281c-7.253-7.265-14.77-14.045-22.253-20.859
      c-0.888-0.809-1.737-1.414-2.557-1.683c-0.634-0.206-1.141-0.165-1.435,0.11c-0.054,0.05-0.101,0.109-0.139,0.176
      c-0.503,0.853,0.439,3.098,2.192,4.695c2.232,2.033,4.462,4.068,6.692,6.104c1.609,1.468,3.235,2.951,4.821,4.471
      c3.502,3.358,7.011,6.717,10.424,10.211c7.184,7.354,14.333,14.753,21.638,21.953c1.862,1.836,3.94,2.482,4.504,1.521
      c0.286-0.478,0.18-1.316-0.281-2.288c-0.469-0.982-1.21-1.928-2.11-2.832C68.113,167.664,60.95,160.466,53.779,153.281
       M38.309,177.268c-1.903-1.551-4.16-2.713-6.383-3.908c-0.264-0.142-0.579-0.178-1.005-0.025c-0.33,0.119-0.672,0.337-0.965,0.611
      c-0.054,0.05-0.106,0.103-0.156,0.157c-0.649,0.698-0.896,1.671-0.376,1.952c0.663,0.357,1.323,0.716,1.984,1.075
      c0.477,0.259,0.959,0.52,1.401,0.818c0.976,0.66,1.956,1.317,2.822,2.092c1.824,1.63,3.609,3.299,5.57,4.791
      c0.5,0.381,1.591-0.027,2.32-0.812c0.366-0.393,0.617-0.849,0.69-1.251c0.072-0.404-0.045-0.684-0.28-0.878
      C42.06,180.347,40.19,178.802,38.309,177.268 M73.439,156.383c-3.104-2.833-6.542-5.257-9.945-7.713
      c-0.404-0.292-0.839-0.455-1.354-0.398c-0.398,0.046-0.777,0.224-1.071,0.499c-0.054,0.05-0.105,0.104-0.153,0.161
      c-0.616,0.733-0.596,1.991,0.2,2.567c1.015,0.733,2.028,1.468,3.04,2.204c0.731,0.53,1.47,1.066,2.168,1.639
      c1.543,1.265,3.091,2.529,4.529,3.914c3.028,2.915,6.016,5.87,9.177,8.644c0.806,0.707,2.118,0.536,2.81-0.288
      c0.348-0.412,0.519-0.954,0.472-1.483c-0.049-0.534-0.306-0.963-0.691-1.316C79.565,161.999,76.507,159.185,73.439,156.383"/>
  </g>

  <g id="Circle" fill="none" stroke="#363738" stroke-width="3" stroke-linecap="round" stroke-linejoin="round">
    <path d="M94.223,16.874
      c2.285,3.803,17.243-17.686,20.477-12.304c3.067,5.104-11.409,20.666-11.191,21.029c1.58,2.629,9.791-10.681,11.909-7.156
      c1.465,2.438-8.119,15.677-8.119,15.677c1.87,3.112,13.853-10.362,14.753-8.865c1.82,3.029-5.328,10.74-4.015,12.925
      c0.708,1.179,9.149-7.999,10.253-6.161c0.309,0.514-11.64,14.246-10.134,16.753c2.169,3.609,12.855-12.678,15.042-9.038
      c0,0-20.249,23.77-18.138,27.283c0,0,13.876-10.015,14.617-8.783c2.943,4.899-13.97,20.515-12.902,22.293
      c0.166,0.277,14.499-12.892,16.345-9.821c4.381,7.291-22.691,28.667-21.626,30.439c0,0,20.846-17.137,22.881-13.749
      c0,0-30.21,19.407-26.077,26.285c0.441,0.734,18.6-13.224,19.504-11.719c0.05,0.083-27.024,27.564-25.024,30.894
      c2.103,3.5,27.31-17.771,27.911-16.771c6.575,10.943-36.407,27.717-34.123,31.518c3.552,5.912,21.63-16.59,23.217-13.95
      c3.43,5.709-30.456,32.78-29.266,34.761c4.403,7.327,16.287-14.302,18.28-10.984"/>
    <path d="M64.436,16.263
      c2.148,3.575,15.579-9.361,15.579-9.361C81.6,9.54,41.212,39.677,42.694,42.144C53.131,59.513,98.003,1.214,101.401,6.87
      c6.268,10.432-74.123,54.97-71.088,60.021c4.366,7.265,28.455-17.88,28.801-17.305c5.186,8.63-36.857,37.365-36.455,38.035
      c3.562,5.928,12.928-15.322,16.263-9.772c0.161,0.269-25.497,21.133-22.406,26.277c2.706,4.504,14.309-8.912,14.447-8.681
      c4.98,8.289-26.548,22.941-23.984,27.207c0,0,28.365-17.737,28.671-17.227c0.407,0.677-31.014,25.684-28.197,30.373
      c2.437,4.056,20.767-12.693,20.862-12.535c0,0-28.114,25.239-24.812,30.735c1.431,2.381,21.055-15.939,22.507-13.523
      c3.852,6.41-24.612,21.452-20.44,28.396c0.593,0.987,18.06-14.656,19.739-11.86c0.695,1.156-19.44,18.106-16.779,22.534
      c1.442,2.399,15.903-11.294,16.671-10.017c1.686,2.806-10.034,16.749-9.757,17.209c1.152,1.917,9.765-6.724,10.143-6.095
      c2.78,4.627-11.569,16.878-8.235,22.426c1.195,1.988,12.198-12.331,14.406-8.656c1.94,3.229-5.91,11.785-4.883,13.495
      c0,0,16.575-12.767,17.814-10.704c2.028,3.375,0.144,12.036,1.929,15.007c7.892,13.134,43.408-38.51,48.895-29.379"/>
  </g>
</svg>