<?xml version="1.0" encoding="utf-8"?>
<svg version="1.2" baseProfile="tiny"
   xmlns="http://www.w3.org/2000/svg"
   xmlns:xlink="http://www.w3.org/1999/xlink"
   xml:space="preserve"
   x="0px" y="0px" width="256px" height="256px" viewBox="0 0 249.8 217.3">

  <g id="Helicopter" fill="#3F3C3B">
    <path d="M187,155.2c1.3-0.8,2.7-1.6,3.9-2.4c0.9-0.6,1.8-0.9,2.6-1.7c0.6-0.7,1.5-1.2,2.5-1.1
      c0.2,0,0.3-0.1,0.5-0.1c1-0.5,1.9-1,2.9-1.5c0.1,0,0.1-0.2,0.1-0.4c0.1,0,0.1-0.1,0.2-0.1c0.3,0.6,0.7,0.4,0.9,0.3
      c0.2-0.1,0-0.4,1.3-0.5c0-0.3-0.1-0.7-0.2-1.1c-0.1-0.3-0.3-0.6-0.5-0.9c-0.1-0.1-0.2-0.4-0.3-0.4c-0.2,0-0.4,0.1-0.5,0.3
      c-0.2,0.2-0.3,0.3-0.6,0.1c-0.2-0.1-0.4-0.1-0.6-0.2c0,0.2-0.1,0.4-0.1,0.6c0,0.2,0.5,1.7,0.6,1.8c-0.1,0-0.1,0-0.2,0.1
      c-0.5-1.5-0.5-1.5-0.5-1.6c-0.5-1-0.7-1.1-1.7-0.5c-0.4,0.3-0.9,0.6-1.4,0.7c-2.5,0.7-5,1.3-7.5,2c-3.9,1.1-7.8,2.2-11.7,3.4
      c-1,0.3-2,0.6-3.1,0.9c0-0.1,0-0.1-0.1-0.2c4.4-1.7,9.1-2.9,13.5-4.7c-0.1,0-0.2,0-0.3,0c-5.4,1.1-10.8,2.3-16.2,3.4
      c-4.4,0.9-11.3,2.4-15.7,3.4c0-0.1,0-0.1-0.1-0.1c1.5-0.4,5.4-1.3,6.9-1.7c7-1.6,13.9-3.2,20.9-4.9c4.4-1,8.9-1.8,13.2-3.3
      c0.4-0.1,0.7-0.3,1-0.6c0.5-0.5,1-0.8,1.7-0.9c0.3-0.1,0.7-0.2,1-0.4c0.8-0.6,1.7-1,2.8-0.8c0.2,0,0.3-0.1,0.5-0.1
      c0.7-0.1,1.4-0.3,2.1-0.4c0.3-0.1,0.7-0.1,1-0.2c3.4-1.7,6.8-3.5,10.2-5.2c3.1-1.6,6.1-3.1,9.2-4.8c2.1-1.1,4.3-2.2,6.7-2.3
      c0.1,0,0.2,0,0.3,0c-1.1,0.5-2.3,0.9-3.3,1.4c-2.8,1.5-5.5,3.1-8.3,4.7c-2.6,1.5-5.3,3-7.9,4.5c-0.2,0.1-0.3,0.2-0.4,0.4
      c0,0,0,0,0,0c11.8-4,23.6-8,35.3-12c0,0.1,0,0.1,0.1,0.2c-0.2,0.2-0.4,0.4-0.7,0.5c-1,0.4-2.1,0.7-3.1,1.1
      c-6.3,2.3-12.6,4.6-18.9,6.9c-5.9,2.2-11.9,4.4-17.8,6.5c0,0-0.1,0-0.1,0c0-0.1,0-0.2,0.1-0.4c-0.6,0.3-1.1,0.6-1.5,0.8
      c-0.3,0.1,0.1,0.8-0.7,0.6c0.3,1,0.6,1.9,0.9,2.9c0.6-0.2,1.2-0.3,1.8-0.5c0.4-1.1,1.1-1.7,1.8-2.5c-0.3,0.7-0.6,1.3-0.9,2.1
      c0.6,0,1,0,1.5-0.1c2.1-0.3,4.1-0.7,6.2-1c1.1-0.2,0.5-0.2,0.9-0.4c0,0,0,0,0.3-0.1c0.4-0.1,0.3,0.3,0.5,0.4c0.3,0.2,0.7,0.3,1,0.5
      c0.3,0.2,0.5,0.1,0.8-0.2c0.2-0.2,0.3-0.3,0.5-0.5c0,0,1.5-0.2,0.1,0.1c-0.1,0.2-0.3,0.4-0.4,0.6c0.9-0.1,1.8-0.3,2.7-0.3
      c0.5,0,1.2,0,1.6,0.2c1.2,0.6,2.3,1.3,3.5,2c0.5,0.3,0.9,0.4,1.3-0.1c0.4,0.3,0.9,0.6,1.3,0.9c0.1,0.1,0.3,0.1,0.4,0.1
      c0.5,0.1,1,0.2,1.5,0.4c1.2,0.4,1.7,1.2,1.4,2.4c-0.2,0.7-0.6,1.4-1.1,2c-0.7,0.8-1.6,1.4-2.4,2c-0.2,0.1-0.4,0.2-0.4,0.4
      c-0.4,0.9-0.8,1.1-1.8,0.9c-0.1,0-0.2,0-0.3,0.1c-1.3,0.8-2.7,1.3-3.8,2.3c-0.6,0.5-0.7,1.1-0.8,1.7c0.2,0.2,0.5,0.3,0.5,0.5
      c0.3,1.2,0.5,2.2-0.5,3.1c-0.3,0.2-0.9,0.5-1.2,0.5c-1.7,0-2.4-1-2.3-2.7c0-0.5-0.3-1.1-0.6-1.7c-0.7,0.3-1.2,0.5-1.7,0.7
      c-0.8,0.3-1.6,0.7-2.4,1c-0.6,0.2-1.2,0.4-1.1,1.2c0.2,0.1,0.4,0.2,0.6,0.3c-0.1,0.2-0.7,1-0.8,1.3c-0.1-0.3,0.4-0.9,0.3-1
      c-0.3,0-0.6,0-1,0.1c-0.2,0.2-0.2,0.5-0.1,0.9c0.4,1.1,0.1,2.3-0.8,2.9c-1.3,0.9-3.2,0-3.4-1.8c-0.1-0.4,0-0.7,0-1.1
      c-0.1,0-0.3,0.1-0.4,0.1c-5.5,2.3-11.1,4.3-16.8,6.1c-3.3,1.1-6.5,2.2-9.8,3.3c-0.3,0.1-0.4,0.2-0.5,0.8c0,0.2,0,0.3-0.1,0.5
      c-0.2,0,0,0-0.2,0c0-0.2,0-0.6-0.1-0.9c-0.2,0-0.4,0.1-0.6,0.2c-1.9,0.7-3.7,1.4-5.6,2.2c-0.6,0.2-1,0.7-1.3,1.3
      c-0.6,1.4-0.9,2.9-1,4.3c0,0.2,0.1,0.5,0.2,0.7c0.2,0.7-0.2,1.4-0.9,1.5c-0.6,0.1-1.4-0.2-1.5-0.9c-0.2-0.7,0.1-1.2,0.6-1.6
      c0.8-0.7,1.1-1,0.6-1.6c0.2-0.3,0.5-0.5,0.6-0.8c0.1-0.1,0-0.4-0.1-0.5c-0.4-0.4-0.8-0.9-1.2-1.2c-0.1-0.1-0.3-0.2-0.5-0.1
      c-2.3,0.4-4.7,0.7-7,1.1c-1,0.2-1.9,0.6-2.8,1.1c-1.7,0.8-3.4,1.2-5.3,1.3c-2,0.1-4,0.3-5.9,0.4c0,0,0-0.1,0-0.1
      c0.2-0.8,0.5-1.7,0.7-2.5c0.3-1.2,0.9-2.1,2.3-2.4c1.2-0.2,2.3-0.7,3.6-1c-0.8-0.7-1.5-1.4-2.3-2.2c0.7-0.3,1.2-0.5,1.9-0.8
      c-1.7-1.5-3.3-2.8-5-4.2c-0.7,0.9-1.4,1.8-2.1,2.7c-0.4-0.3-0.7-0.5-1.1-0.8c0.6-1,1.3-1.9,1.9-2.8c-0.4-0.4-0.7-0.7-1-1
      c-0.4-0.5-0.4-0.7,0-1.1c0.2-0.2,0.5-0.4,0.8-0.6c0.9-0.7,1.2-1,1-1.7c0.3-0.3,0,0,0.3-0.3c0.4,0.4,1.3-0.2,0.5,0.5
      c0.4-0.4,0-0.6-0.8-1.2c-2-1.6-4.1-3.2-6.1-4.8c0.1-0.2,0.3-0.5,0.4-0.8c0,0,0.1,0,0.1,0c0,0.1,0.1,0.1,0.1,0.2
      c2.2,1.6,4.1,3.3,6.4,5.1c0.1,0,0.1,0.1,0.2,0.1c0.5,0.3,0.9,0.7,1.4,1c0.3,0.2,0.7-0.1,0.7-0.4c0-0.1,0.1-0.3,0.2-0.4
      c0.2-0.2,0.5-0.3,0.6-0.6c1-1.5,2-2.9,3.1-4.4c0.2-0.3,0.4-0.5,0.6-0.8c0.4,0.4,0.7,0.7,1,1c-0.7,1.2-1.4,2.3-2.1,3.4
      c-0.1,0.1-0.2,0.2-0.3,0.3c-0.2,0.2-0.5,0.4-0.7,0.6c-0.3,0.5-0.6,0.9-0.8,1.4c0,0.2-0.1,0.5-0.2,0.6c-0.1,0.1-0.3,0.1-0.6,0.2
      c0.2,0.2,0.3,0.3,0.4,0.4c0.1,0.1,0.4,0.1,0.5,0.3c0.5,0.5,1,1.1,1.5,1.6c2.6,2.5,5.4,4.9,8.5,6.8c0.6,0.4,1.1,0.4,1.7,0
      c5.3-3.4,10.5-6.9,15.8-10.3c0.6-0.4,1-0.9,1.3-1.5c0.3-0.7,0.6-1.4,0.8-2.1c0.1-0.1,0.1-0.3,0-0.5c-0.1-0.6,0.1-1.2,0.6-1.6
      c0.2-0.2,0.5-0.3,0.7-0.5 M205.7,146.9c-0.3-1-0.6-1.9-0.9-2.8c0-0.1-0.4-0.2-0.6-0.2c-0.4,0.1-0.7,0.3-1.1,0.4
      c-0.3,0.1-0.4,0.3-0.3,0.6c0.2,0.5,0.2,1,0.4,1.5c0.1,0.2,0.2,0.4,0.4,0.8C204.2,146.4,204.9,146.7,205.7,146.9z M219.4,159.7
      c0.1,0.2,0.2,0.5,0.2,0.7c0.6-0.2,1.3-0.3,1.9-0.6c0.4-0.2,0.6-0.8,0.8-1.2c0,0-0.1-0.1-0.1-0.1
      C221.3,158.8,220.4,159.2,219.4,159.7z M171.7,178.8c0.2-0.6,0.4-1,0.6-1.6c-0.6,0.1-1,0.1-1.7,0.2
      C171,177.8,171.3,178.2,171.7,178.8z"/>
  </g>

  <g id="Text" fill="#3F3C3B" stroke="#3F3C3B" stroke-miterlimit="10">
    <path d="M46.8,197.6c-0.1,0-0.5,0.1-1.1,0.3
      c-0.6,0.2-1,0.3-1.1,0.2c-0.1,0-0.3-0.1-0.6-0.4c-0.3-0.3-0.4-0.5-0.4-0.6c0.3-0.4,0-0.4,0.4-0.6s1.4-0.8,1.9-0.9
      c0.4-0.1,0.9-0.3,1.3-0.4c0.4-0.2,0.8-0.4,1.2-0.7c1.3-1.1,2.6-2.2,4-3.3c1.3-1.1,2.8-2.1,4.2-2.9c1.5-0.8,3-1.5,4.7-2
      c1.7-0.5,3.4-0.8,5.3-0.8c0.8,0,1.3,0.1,1.6,0.3c0.3,0.2,0.4,0.6,0.4,1.3c0,0.6-0.3,1.1-0.9,1.6c-0.6,0.5-1.3,1-2.1,1.4
      c-0.8,0.4-1.6,0.8-2.4,1.1c-0.8,0.3-1.3,0.5-1.6,0.7c-0.2,0.1-0.7,0.4-1.6,0.7c-0.9,0.3-1.8,0.7-2.9,1.1c-1,0.4-2,0.8-2.9,1.2
      c-0.9,0.4-1.4,0.6-1.6,0.7c-0.5,0.2-0.8,0.3-1,0.4c-0.2,0.1-0.2,0.3-0.2,0.8c0,0.4,0.2,0.6,0.5,0.8c0.3,0.2,0.8,0.3,1.2,0.3
      c0.5,0,0.9,0,1.4,0c0.4,0,0.8,0,0.9,0c3.6,0,7.3-0.4,10.9-1.3c3.6-0.8,5.3-1,8.8-1.8c0.1,0-1.8,0.7-1.4,0.6c0.4-0.2-0.7,0-0.6,0
      c0.1,0,0.5,0.1,0.6,0.2c0.1,0.1,0.2-0.1,0.2,0c-1.3,1.1,2,0.5-0.2,1.3c-2.3,0.8-4.7,1.4-7.2,2c-2.5,0.5-5,0.9-7.3,1.2
      s-4.3,0.4-5.8,0.4c-0.6,0-1.3-0.1-1.9-0.4c-0.6-0.3-1.2-0.6-1.8-0.9c-0.6-0.3-1.1-0.6-1.5-0.9c-0.4-0.3-0.8-0.4-1.1-0.4H46.8z
       M62.4,187.7c-1.1,0.2-2.2,0.5-3.4,1c-1.2,0.5-2.3,1.1-3.3,1.9c-1.1,0.8-2,1.7-2.8,2.7l0.3,0.1c0.7,0.1,1.6,0,2.7-0.4
      c0.5-0.2,0.5,0,3.6-1.5c1.3-0.6,2.5-1.2,3.8-1.9c1.2-0.7,2.2-1.2,2.9-1.6c-0.1,0-0.3-0.1-0.5-0.2c-0.2-0.1-0.3-0.1-0.4-0.2
      C64.5,187.5,63.5,187.5,62.4,187.7z"/>
    <path d="M92.6,189.7c-0.2-0.7-0.3-1.3-0.6-2
      c-0.2-0.7-0.5-1.2-0.8-1.7c-0.3-0.5-0.7-0.8-1-0.8c-1.1,0-2.1,0.5-3.1,1.4c-1,0.9-1.9,1.7-2.7,2.3c-0.7,0.6-1.6,1.3-2.7,2.1
      c-1.1,0.8-2.1,1.7-3.1,2.4c-1,0.7-2.1,1.6-3.5,2.7c-0.1,0.1-0.3,0.2-0.5,0.2h-1c-0.3-0.1,0-0.5,0-0.8c0.1-0.4,0.1-0.7,0.1-0.8
      c1.4-1.2,2.7-2.2,3.8-3c1.1-0.8,2.3-1.7,3.5-2.7s2.5-1.9,3.6-2.8c1.2-0.9,2.1-1.6,2.9-2.2c0.8-0.6,1.3-0.9,1.5-1
      c0.5-0.2,0.9-0.4,1.2-0.5c0.3-0.1,0.7-0.1,1.2-0.1c0.8,0,1.4,0.4,1.8,1.2c0.4,0.8,0.7,1.6,0.9,2.6s0.5,1.8,0.8,2.6
      c0.3,0.8,0.9,1.2,1.7,1.2c0.2,0,0.3,0,0.3-0.1c0.4-0.2,1.2-0.5,2.4-1c1.2-0.5,2.4-1,3.7-1.6c1.3-0.6,2.5-1.1,3.7-1.6
      c1.2-0.5,2-0.8,2.5-1c0.5-0.2,0.9-0.3,1.1-0.4c0.2-0.1,0.5-0.1,1-0.1c0.5,0,0.8,0.1,0.9,0.4c0.1,0.3,0.2,0.6,0.2,1
      c0,0.4-0.1,0.8-0.4,1c-0.3,0.3-0.6,0.5-1,0.6c-0.4,0.2-0.8,0.3-1.2,0.4c-0.4,0.1-0.8,0.2-1.1,0.3c-0.3,0.1-0.9,0.4-1.7,0.8
      c-0.8,0.4-1.7,0.8-2.6,1.3c-0.9,0.4-1.8,0.9-2.5,1.3c-0.8,0.4-1.3,0.7-1.6,0.9c-0.1,0.1-0.1,0.2-0.1,0.3c0,0.5,0.6,0.9,1.7,1.1
      c1.2,0.3,2.4,0.5,3.8,0.8c1.3,0.3,2.6,0.7,3.8,1.1c0.4,0.2,0.7,0.4,1,0.6c0.6,0.5,0.2,1.5-0.5,1.4c-0.8,0-1.7,0-2.7-0.1
      c-1.5-0.1-2.8-0.2-3.7-0.5c0,0,0,0-0.1,0c-0.2-0.1-0.6-0.2-1.2-0.4c-0.6-0.2-1.3-0.4-2-0.7c-0.7-0.2-1.3-0.4-2-0.7
      c-0.5-0.2-0.9-0.3-1.1-0.4c-0.1,0-0.2,0-0.3,0h-0.9c-1.1,0-2.2,0.3-3.4,0.8c-1.2,0.5-2.4,1.2-3.5,1.9s-2.2,1.6-3.2,2.4
      c-1,0.9-1.8,1.5-1.8,1.5l0,0l-1.3-1.4c-0.1-0.1,0.1-0.4,0.2-0.6c0.4-0.5,0.7-0.9,1-1.2c0.3-0.3,0.7-0.7,1-1
      c0.4-0.4,0.7-0.7,0.9-0.8c0.3-0.3,0.8-0.7,1.6-1.1c0.8-0.4,1.5-0.9,2.3-1.4c0.8-0.5,1.5-1,2.1-1.5c0.6-0.5,0.9-0.9,0.9-1.3
      C92.9,190.9,92.8,190.4,92.6,189.7z"/>
    <path d="M115.5,209.1c0.5-1.1,1.1-2.2,1.8-3.3
      c0.7-1.1,1.3-2.2,1.8-3.3c0.6-1.1,0.8-2.3,0.8-3.6v-0.6c-0.6-0.1-1.3-0.2-2.1-0.3c-0.8-0.1-1.6-0.3-2.3-0.6
      c-0.7-0.2-1.3-0.6-1.8-1.1c-0.5-0.5-0.8-1.1-0.8-1.9c0-1.6,0.3-2.7,1-3.3c0.7-0.6,1.8-0.8,3.3-0.8c0.1,0,0.5,0,1,0
      c0.6,0,0.9,0,1.1,0.1c0.5,0.3,0.8,0.6,1,1.2c0.2,0.5,0.3,1.1,0.4,1.6c0.1,0.5,0.2,1,0.4,1.4c0.2,0.4,0.6,0.6,1.2,0.6
      c1.1,0,2-0.4,2.7-1.2c0.7-0.8,1.3-1.7,1.8-2.7s0.8-2.1,1.1-3.1c0.3-1.1,0.6-1.9,0.9-2.5c0.3-0.7,0.8-1.5,1.3-2.5
      c0.6-1,0.8-1.9,0.8-2.9v-0.5c-0.8,0.3-1.6,0.6-2.4,0.8c-0.8,0.2-1.6,0.3-2.5,0.3c-0.3,0-0.6,0-1,0c-0.3,0-0.5-0.3-0.5-0.7
      c0-0.4,0.4-0.8,1.2-1.1c0.8-0.3,1.7-0.6,2.7-0.9c1-0.3,2.1-0.7,3.1-1.3c1.1-0.5,1.9-1.3,2.4-2.4c0.6-0.9,1.2-2,1.8-3.2
      c0.7-1.2,1.4-2.3,2.2-3.4c0.8-1.1,1.7-2,2.8-2.8s2.2-1.1,3.6-1.1c0.4,0,0.8,0.3,1,0.8c0.2,0.5,0.3,1,0.3,1.3c0,1.6-0.4,2.9-1.1,4
      c-0.8,1.1-1.7,2.1-2.7,3c-1.1,0.9-2.2,1.7-3.3,2.5c-1.2,0.8-2.1,1.7-3,2.7c-1,1.3-0.6,0.7-1.7,3c-0.7,1.4-1.4,2.9-2.1,4.5
      c-0.7,1.6-1.3,3.1-1.8,4.5c-0.5,1.4-0.8,2.4-0.8,2.9c0,0.1,0,0.1,0,0.2c0,0.1,0,0.2,0,0.2l19.7-6.1l0.2,0c-0.7-0.1,0.4,0,1.4,0.2
      c0.4,0.1-0.7,0.5-1.2,0.7c-0.6,0.3-0.9,0.4-1.3,0.5c-0.4,0.2-0.7,0.3-0.9,0.4c-0.7,0.3-1.9,0.8-3.8,1.5c-1.8,0.7-3.7,1.3-5.7,2.1
      c-2,0.7-3.9,1.4-5.7,2c-1.8,0.6-3.1,1.1-3.9,1.3l-1,1.1c-0.2,0.4-0.5,1.2-0.9,2.4c-0.4,1.2-0.9,2.4-1.4,3.7
      c-0.5,1.3-1,2.5-1.5,3.7c-0.5,1.2-0.8,2-1,2.4c-0.1,0.4-0.3,0.9-0.7,1.7s-0.7,1.5-1.1,2.2c-0.4,0.7-0.9,1.3-1.5,1.8
      c-0.5,0.5-1.1,0.8-1.6,0.8c-1,0-1.8-0.3-2.3-0.9c-0.5-0.6-0.8-1.4-0.8-2.3C114.7,211.3,115,210.2,115.5,209.1z M117.1,195.1
      c0.6,0.1,1.1,0.2,1.6,0.2c0.6,0,0.9,0,0.9,0c0-0.6,0-1.2-0.1-1.8c-0.1-0.7-0.4-1-1.1-1c-0.6,0-1.1,0.2-1.6,0.5
      c-0.5,0.3-0.7,0.8-0.7,1.4C116.2,194.7,116.5,195,117.1,195.1z M117.7,208.9c0,0-0.1,0.3-0.2,0.6c-0.1,0.3-0.2,0.4-0.2,0.5
      c-0.1,0.2-0.2,0.6-0.3,1.3c-0.1,0.7-0.2,1.1-0.3,1.3c0.1,0,0.2,0,0.3,0.1c0.4,0,0.9-0.6,1.6-1.8c0.7-1.2,1.4-2.6,2-4.1
      c0.7-1.6,1.2-3.1,1.7-4.6s0.8-2.6,0.8-3.3v-1.1c-0.6,0.1-1.1,0.3-1.7,0.6s0.1,0.3-0.4,1.6l-3.2,8.5L117.7,208.9z M141.7,167.6
      c-0.6,0.4-1.1,1-1.6,1.6c-0.5,0.6-0.8,1.2-1.1,1.9c-0.3,0.7-0.4,1.3-0.4,1.9v0.5c0.4-0.3,0.8-0.6,1.4-1.1c0.5-0.5,1.1-1,1.6-1.6
      c0.5-0.6,1-1.2,1.4-1.8c0.4-0.7,0.6-1.3,0.6-1.9C142.8,166.9,142.2,167.1,141.7,167.6z"/>
    <path d="M141,196.2c0.3-0.4,0.6-0.7,1-0.9
      c0.4-0.2,0.9-0.4,1.4-0.5c0.5-0.1,1-0.2,1.5-0.4c0.5-0.1,0.9-0.2,1.3-0.4c1.4-0.5,2.6-1,3.7-1.4c1.1-0.4,2.2-0.9,3.2-1.4
      c1-0.5,2.1-1,3.2-1.6c1.1-0.6,2.3-1.2,3.7-2c0.3-0.2,0.7-0.5,1.2-0.9c0.5-0.4,1-0.9,1.6-1.3c0.6-0.4,1.1-0.8,1.7-1.1
      c0.6-0.3,1.1-0.5,1.6-0.5c0.9,0,1.3,0.5,1.3,1.4v0.3c-0.4,0.4-1,0.9-1.7,1.5c-0.7,0.6-1.4,1.3-2,2c-0.7,0.7-1.3,1.5-1.9,2.2
      c-0.3,0.4-0.6,0.9-0.9,1.3c-0.2,0.4,0.1,1,0.6,1h0c2,0,4-0.2,5.9-0.9c1.4-0.5,2.9-0.7,4.4-0.8c0.5,0,0.8,0.5,0.6,0.9
      c-0.2,0.6-0.8,1-1.5,1.2c-0.8,0.3-1.6,0.6-2.7,0.9c-1,0.4-2.1,0.7-3.2,1s-2.3,0.6-3.4,0.8c-1.1,0.3-2.2,0.4-3.1,0.4
      c-0.7,0-1.3-0.2-2-0.7c-0.6-0.4-0.9-1-0.9-1.7v-0.3c0-0.1,0.1-0.3,0.2-0.7c0.2-0.4,0.3-0.8,0.5-1.2c0.2-0.4,0.4-0.8,0.5-1.2
      c0.2-0.3,0.3-0.6,0.3-0.7v-0.2v-0.3c-0.4,0.2-1,0.5-1.9,0.9c-0.9,0.4-1.8,0.9-2.9,1.4c-1,0.5-2,1-2.9,1.4
      c-0.9,0.4-1.6,0.8-1.9,0.9c-0.7,0.3-1.6,0.8-2.7,1.4c-1.1,0.6-2.1,0.9-2.9,0.9c-0.3,0-0.6,0-0.9-0.1s-0.4-0.4-0.4-0.8V196.2z"/>
    <path d="M173.9,196.9l17.5-8.5c0.1-0.1,0.3-0.3,0.7-0.7
      c0.4-0.4,0.7-0.7,0.9-0.9c0.2-0.2,0.7-0.7,1.5-1.6c0.8-0.9,1.6-1.8,2.5-2.9c0.9-1,1.7-2,2.5-2.9c0.8-0.9,1.3-1.4,1.5-1.7
      c0.8-0.9,1.6-1.8,2.6-2.7c1-0.9,2.1-1.8,3.2-2.6c1.1-0.8,2.3-1.4,3.6-1.9c1.3-0.5,2.5-0.8,3.9-0.8c0.7,0,1.2,0.1,1.6,0.2
      c0.4,0.2,0.6,0.6,0.6,1.4c0,1.6-0.6,3.2-1.8,4.7c-1.2,1.5-2.8,2.9-4.6,4.2c-1.8,1.3-3.8,2.6-6,3.9c-2.1,1.2-4.1,2.4-6,3.5
      c-1.8,1.1-3.4,2.2-4.6,3.3c-0.8,0.7-1.4,1.4-1.6,2c-0.2,0.5,0.1,1,0.6,1c2.3,0,4.4-0.1,6.4-0.3c2.2-0.2,4.3-0.5,6.4-1
      c2.1-0.5,4.1-1.2,6.2-2c2-0.8,4.1-1.9,6.3-3.2c0.1-0.1,0.8-0.1,0.7,0.2l0,0.2c-0.9,1.6-1.9,2.5-4.1,3.7c-2.2,1.2-4.6,2.2-7.2,3
      c-2.6,0.8-5.3,1.4-7.8,1.8c-2.6,0.4-4.7,0.6-6.3,0.6c-0.3,0-0.9,0-1.9,0c-0.9,0-1.6,0-1.9,0c-0.8-0.1-1.3-0.6-1.6-1.5
      c-0.1-0.5-0.3-1-0.4-1.5c-0.1-0.4-0.5-0.6-0.9-0.5c-0.9,0.3-1.8,0.8-2.8,1.4c-1.3,0.8-2.6,1.5-3.9,2.3c-1.3,0.8-2.5,1.5-3.7,2.1
      c-0.3,0.2-0.6,0.3-0.9,0.4C159.6,206.3,158.8,204.6,173.9,196.9C173.8,196.9,173.8,196.9,173.9,196.9z M210.9,174
      c-1.5,0.8-2.9,1.9-4.1,3.1c-1.3,1.2-2.4,2.5-3.5,3.8c-1,1.3-1.8,2.5-2.3,3.5c0.1,0,0.2,0,0.3,0c0.1,0,0.2,0,0.3,0
      c0.9,0,2.1-0.5,3.5-1.4c1.5-0.9,3-2,4.5-3.2c1.5-1.3,2.9-2.5,4-3.9c1.2-1.3,1.9-2.4,2.3-3.3H215
      C213.7,172.7,212.3,173.1,210.9,174z"/>
  </g>

  <g id="Arrow" fill="#EF7A4B">
    <path d="M55,143.7c0.6,0.2,1.3,0.3,1.9,0.5c0.8,0.2,1.6-0.3,1.9-1.2c0.5-0.4,1-0.8,1.5-1.2
      c0.6-0.5,1.3-1,1.9-1.5c1.2-1,2.4-1.9,3.6-3c1.3-1.1,2.5-2.3,3.7-3.5c1.1-1.2,2.2-2.5,3.3-3.8c0.5-0.7,1.1-1.4,1.6-2.2
      c0.5-0.7,1-1.4,1.4-2.1c0.3-0.4,0.5-0.9,0.8-1.3c0.4-0.7,0.9-1.4,1.3-2.1c0.2-0.3,0.3-0.5,0.5-0.8c0.7-1.2,1.4-2.5,2-3.7
      c0.2-0.4,0.4-0.8,0.6-1.2c0.4-0.7,0.7-1.4,1.1-2.1c0.5-1,1-2.1,1.4-3.1c0.1-0.2,0.1-0.3,0.2-0.5c0.1-0.4,0.3-0.7,0.4-1.1
      c0.2-0.6,0.4-1.2,0.6-1.8c0.2-0.6,0.4-1.2,0.6-1.7c0.1,0.1,0.2,0.1,0.3,0.2c0.3,0.2,0.6,0.5,0.8,0.7c0.2,0.2,0.5,0.4,0.7,0.7
      c0.5,0.8,1,1.6,1.5,2.4c0.3,0.5,0.5,0.9,0.8,1.4c0.2,0.4,0.5,0.8,0.8,1.2c0.1,0.2,0.3,0.4,0.4,0.5c0.2,0.2,0.4,0.4,0.6,0.5
      c0.4,0.3,1,0.3,1.5,0.1c0.3-0.1,0.7-0.3,0.9-0.6c0.5-0.5,0.6-1.3,0.7-2c0.1-0.6,0.2-1.2,0.2-1.8c0.1-1.2,0.2-2.4,0.3-3.6
      c0.1-2.4,0.3-4.7,0.6-7.1c0.2-2.3,0.4-4.7,0.6-7c0.1-1.2,0.2-2.3,0.4-3.5c0.1-1.2,0.3-2.4,0.4-3.6c0.3-2.5,0.5-5,0.9-7.5
      c0.2-1.2,0.4-2.5,0.5-3.7c0-0.5,0.1-1.1,0-1.6c0,0,0-0.1,0-0.1c-0.2-0.5-0.6-0.9-1.1-0.9c-0.2,0-0.5,0-0.7,0
      c-0.2,0.1-0.4,0.2-0.6,0.3c-0.6,0.3-1.2,0.8-1.8,1.1c-0.5,0.3-1,0.7-1.6,1c-0.6,0.3-1.1,0.7-1.7,1c-0.9,0.5-1.8,1-2.7,1.5
      c-1.1,0.6-2.3,1.2-3.4,1.8c-0.9,0.5-1.8,0.9-2.6,1.3c-2.2,1-4.5,2.1-6.7,3.1c-2.1,1-4.2,2-6.4,3c-1.2,0.5-2.3,1.1-3.5,1.7
      c-0.2,0.1-0.5,0.2-0.7,0.4c-0.2,0.1-0.3,0.2-0.5,0.3c-0.6,0.5-1,1.2-1,2c0,0.9,0.6,1.7,1.3,2.1c0.3,0.2,0.6,0.3,1,0.4
      c0.3,0.1,0.5,0.2,0.8,0.3c0.5,0.2,1,0.3,1.5,0.5c0.6,0.2,1.2,0.3,1.9,0.4c1.1,0.2,2.1,0.3,3.2,0.5c1.1,0.1,2.2,0.3,3.2,0.5
      c0.2,0,0.4,0.1,0.6,0.1c-0.8,0.9-1.6,1.9-2.4,2.9c-0.7,0.8-1.3,1.6-2,2.5c-0.6,0.8-1.3,1.5-2,2.2c-0.8,0.9-1.6,1.7-2.4,2.5
      c-0.8,0.8-1.5,1.5-2.3,2.3c-0.7,0.7-1.4,1.5-2.2,2.1c-0.9,0.8-1.7,1.6-2.6,2.4c-0.8,0.6-1.5,1.2-2.3,1.8c-0.6,0.5-1.1,0.9-1.7,1.4
      c-1.6,1.1-3.2,2.2-4.9,3.3c-2.1,1.4-4.2,2.7-6.3,4.1c-0.9,0.6-1.7,1.1-2.6,1.6c-1.3,0.8-2.7,1.6-4,2.4c-0.3,0.2-0.5,0.4-0.6,0.7
      c-0.1,0-0.2,0.1-0.4,0.2c-0.5,0.3-0.8,0.9-0.8,1.5c0,0.4,0.1,0.8,0.3,1.1c0.1,0.1,0.1,0.2,0.2,0.3c0.2,0.3,0.5,0.7,0.7,1
      c0.1,0.2,0.3,0.4,0.4,0.5c0.4,0.5,0.7,1,1.1,1.4c0.4,0.5,0.8,0.9,1.2,1.4c0.4,0.4,0.8,0.8,1.3,1.2c0.5,0.4,0.9,0.8,1.4,1.2
      c0.8,0.7,1.7,1.4,2.5,2.1c1,0.8,2,1.6,3,2.4c0.4,0.3,0.9,0.6,1.3,0.9c0.5,0.3,1,0.6,1.5,0.9C53.1,143.2,54.1,143.4,55,143.7
       M59.1,139.9c-0.4,0.3-0.9,0.7-1.3,1c0,0-0.1,0-0.1,0c0,0,0,0-0.1,0c-0.1,0-0.2-0.1-0.3-0.1c-0.5-0.1-0.9-0.2-1.4-0.4
      c-0.3-0.1-0.6-0.2-1-0.3c-0.8-0.4-1.5-0.8-2.2-1.3c-0.4-0.3-0.9-0.6-1.3-0.9c-1-0.7-1.9-1.4-2.8-2.1c-0.8-0.6-1.6-1.3-2.3-2
      c-0.8-0.8-1.5-1.6-2.3-2.4c-0.4-0.4-0.8-0.8-1.1-1.2c-0.4-0.4-0.8-0.8-1.2-1.2c-0.1-0.1-0.2-0.2-0.2-0.3c2.8-1.7,5.6-3.4,8.3-5.1
      c0.8-0.5,1.6-1,2.5-1.6c1-0.6,2-1.3,3-1.9c1.2-0.8,2.3-1.5,3.5-2.3c0.2-0.2,0.5-0.4,0.7-0.5c0.6-0.5,1.3-1,1.9-1.5l1.3-1.1
      c0.4-0.3,0.8-0.7,1.2-1.1c0.6-0.6,1.2-1.1,1.9-1.7c0.3-0.3,0.6-0.6,0.9-0.9c1.8-1.8,3.6-3.5,5.3-5.3c0.8-0.8,1.6-1.7,2.4-2.6
      c0.8-0.8,1.4-1.7,2.1-2.6c0.7-0.9,1.4-1.9,2.1-2.8c0.7-0.9,1.3-1.8,2-2.7c0.3-0.4,0.5-0.8,0.5-1.3c0-0.2,0-0.3-0.1-0.5
      c-0.1-0.3-0.3-0.6-0.5-0.8c-0.2-0.2-0.5-0.4-0.8-0.4c-0.4-0.3-0.9-0.4-1.4-0.6c-0.5-0.2-1-0.3-1.4-0.4c-1-0.3-2-0.4-3-0.6
      c-1-0.2-2-0.3-2.9-0.5c-0.5-0.1-1-0.2-1.5-0.4c-0.2-0.1-0.5-0.1-0.7-0.2c0.2-0.1,0.4-0.2,0.6-0.3c1-0.5,2-1,3-1.5
      c2-1.1,4.1-2.2,6.1-3.3c0.9-0.5,1.9-1,2.8-1.5c0.6-0.3,1.2-0.6,1.7-0.9c0.5-0.3,1.1-0.6,1.6-0.9c2-1.1,3.9-2.4,5.8-3.6
      c1-0.6,2-1.3,3-1.9c0.5-0.3,1-0.7,1.5-1c0.1-0.1,0.2-0.1,0.3-0.2c-0.2,1.1-0.4,2.1-0.6,3.2c-0.3,1.6-0.4,3.2-0.6,4.8
      c-0.3,2.3-0.6,4.5-0.8,6.8c-0.3,2.5-0.5,4.9-0.7,7.4c-0.1,1.4-0.3,2.8-0.4,4.2c-0.1,1-0.2,2-0.3,3c-0.1,0.9-0.2,1.8-0.3,2.7
      c-0.1-0.2-0.2-0.3-0.3-0.5c-0.5-0.9-1.1-1.8-1.9-2.5c-0.5-0.4-1-0.8-1.6-1.2c-0.4-0.2-0.7-0.4-1.1-0.6c-0.5-0.3-1.1-0.4-1.7-0.2
      c-0.6,0.2-1,0.6-1.3,1.2c-0.1,0.2-0.2,0.4-0.2,0.6c-0.1,0.1-0.1,0.2-0.2,0.4c-0.2,0.7-0.4,1.4-0.6,2c-0.1,0.4-0.2,0.7-0.3,1.1
      c-0.1,0.3-0.2,0.6-0.3,0.9c-0.1,0.3-0.2,0.6-0.3,0.9c-0.3,0.8-0.5,1.5-0.8,2.2c-0.2,0.6-0.5,1.3-0.8,1.9c-0.3,0.7-0.6,1.5-0.9,2.2
      c-0.3,0.7-0.6,1.3-1,1.9c-0.2,0.3-0.3,0.7-0.5,1c-0.2,0.3-0.3,0.6-0.5,1c-0.2,0.3-0.3,0.6-0.5,0.9c-0.2,0.3-0.4,0.6-0.6,1
      c-0.8,1.2-1.6,2.5-2.3,3.8c-0.2,0.3-0.4,0.6-0.6,0.9c-0.2,0.3-0.5,0.7-0.7,1c-0.5,0.7-1.1,1.4-1.6,2.2c-0.1,0.1-0.1,0.2-0.1,0.3
      c-0.5,0.6-0.9,1.2-1.4,1.8c-1.6,1.8-3.3,3.5-5.1,5.2c-0.4,0.4-0.8,0.7-1.3,1.1c-0.7,0.6-1.4,1.2-2.1,1.8
      C60.3,138.9,59.7,139.4,59.1,139.9"/>
    <path d="M54,130.7c0.7-0.9,1.8-2.2,2.8-3c3.1-2.8,6.1-5.6,9.2-8.3c1-0.9,1.9-1.5,2.3-1.6
      c0.4-0.1,0.5,0.3,0.1,1c-0.4,0.7-1.2,1.8-2.2,3c-0.3,0.4-0.6,0.7-0.9,1c-0.7,0.7-1.4,1.4-2.2,2.1c-2.7,2.4-5.3,4.7-8,7
      c-1.6,1.4-2.6,1.8-2.4,1.1C52.7,132.5,53.2,131.7,54,130.7"/>
  </g>

  <g id="Dashes" fill="#EF7A4B">
    <path d="M48.2,161.9c4.6,4.5,9.2,8.9,13.9,13.4c0.6,0.6,1,1.2,1.2,1.9c0.2,0.7,0.1,1.4-0.2,1.8
      c-0.6,0.9-2.2,0.7-3.5-0.4c-4.7-4.5-9.3-9.1-13.9-13.7c-2.2-2.2-4.5-4.2-6.8-6.3c-1-0.9-2.1-1.8-3.2-2.7c-1.5-1.2-2.9-2.5-4.4-3.7
      c-1.2-1-1.5-2.6-1-3.4c0-0.1,0.1-0.1,0.1-0.2c0.3-0.3,0.7-0.4,1.2-0.4c0.6,0.1,1.2,0.4,1.8,0.9C38.5,153.3,43.5,157.3,48.2,161.9
       M42.3,169.4c-3.1-2.8-6.5-5.3-9.9-7.7c-0.4-0.3-0.8-0.5-1.4-0.4c-0.4,0-0.8,0.2-1.1,0.5c-0.1,0.1-0.1,0.1-0.2,0.2
      c-0.6,0.7-0.6,2,0.2,2.6c1,0.7,2,1.5,3,2.2c0.7,0.5,1.5,1.1,2.2,1.6c1.5,1.3,3.1,2.5,4.5,3.9c3,2.9,6,5.9,9.2,8.6
      c0.8,0.7,2.1,0.5,2.8-0.3c0.3-0.4,0.5-1,0.5-1.5c0-0.5-0.3-1-0.7-1.3C48.5,175,45.4,172.2,42.3,169.4 M53.8,153.3
      c-7.3-7.3-14.8-14-22.3-20.9c-0.9-0.8-1.7-1.4-2.6-1.7c-0.6-0.2-1.1-0.2-1.4,0.1c-0.1,0.1-0.1,0.1-0.1,0.2
      c-0.5,0.9,0.4,3.1,2.2,4.7c2.2,2,4.5,4.1,6.7,6.1c1.6,1.5,3.2,3,4.8,4.5c3.5,3.4,7,6.7,10.4,10.2c7.2,7.4,14.3,14.8,21.6,22
      c1.9,1.8,3.9,2.5,4.5,1.5c0.3-0.5,0.2-1.3-0.3-2.3c-0.5-1-1.2-1.9-2.1-2.8C68.1,167.7,60.9,160.5,53.8,153.3 M38.3,177.3
      c-1.9-1.6-4.2-2.7-6.4-3.9c-0.3-0.1-0.6-0.2-1,0c-0.3,0.1-0.7,0.3-1,0.6c-0.1,0.1-0.1,0.1-0.2,0.2c-0.6,0.7-0.9,1.7-0.4,2
      c0.7,0.4,1.3,0.7,2,1.1c0.5,0.3,1,0.5,1.4,0.8c1,0.7,2,1.3,2.8,2.1c1.8,1.6,3.6,3.3,5.6,4.8c0.5,0.4,1.6,0,2.3-0.8
      c0.4-0.4,0.6-0.8,0.7-1.3c0.1-0.4,0-0.7-0.3-0.9C42.1,180.3,40.2,178.8,38.3,177.3 M73.4,156.4c-3.1-2.8-6.5-5.3-9.9-7.7
      c-0.4-0.3-0.8-0.5-1.4-0.4c-0.4,0-0.8,0.2-1.1,0.5c-0.1,0.1-0.1,0.1-0.2,0.2c-0.6,0.7-0.6,2,0.2,2.6c1,0.7,2,1.5,3,2.2
      c0.7,0.5,1.5,1.1,2.2,1.6c1.5,1.3,3.1,2.5,4.5,3.9c3,2.9,6,5.9,9.2,8.6c0.8,0.7,2.1,0.5,2.8-0.3c0.3-0.4,0.5-1,0.5-1.5
      c0-0.5-0.3-1-0.7-1.3C79.6,162,76.5,159.2,73.4,156.4"/>
  </g>

  <g id="Circle" fill="none" stroke="#3F3C3B" stroke-width="3" stroke-linecap="round" stroke-linejoin="round">
    <path d="
      M94.2,16.9c2.3,3.8,17.2-17.7,20.5-12.3c3.1,5.1-11.4,20.7-11.2,21c1.6,2.6,9.8-10.7,11.9-7.2c1.5,2.4-8.1,15.7-8.1,15.7
      c1.9,3.1,13.9-10.4,14.8-8.9c1.8,3-5.3,10.7-4,12.9c0.7,1.2,9.1-8,10.3-6.2c0.3,0.5-11.6,14.2-10.1,16.8c2.2,3.6,12.9-12.7,15-9
      c0,0-20.2,23.8-18.1,27.3c0,0,13.9-10,14.6-8.8c2.9,4.9-14,20.5-12.9,22.3c0.2,0.3,14.5-12.9,16.3-9.8
      c4.4,7.3-22.7,28.7-21.6,30.4c0,0,20.8-17.1,22.9-13.7c0,0-30.2,19.4-26.1,26.3c0.4,0.7,18.6-13.2,19.5-11.7
      c0,0.1-27,27.6-25,30.9c2.1,3.5,27.3-17.8,27.9-16.8c6.6,10.9-36.4,27.7-34.1,31.5c3.6,5.9,21.6-16.6,23.2-13.9
      c3.4,5.7-30.5,32.8-29.3,34.8c4.4,7.3,16.3-14.3,18.3-11"/>
    <path d="
      M64.4,16.3C66.6,19.8,80,6.9,80,6.9c1.6,2.6-38.8,32.8-37.3,35.2C53.1,59.5,98,1.2,101.4,6.9c6.3,10.4-74.1,55-71.1,60
      c4.4,7.3,28.5-17.9,28.8-17.3c5.2,8.6-36.9,37.4-36.5,38c3.6,5.9,12.9-15.3,16.3-9.8c0.2,0.3-25.5,21.1-22.4,26.3
      c2.7,4.5,14.3-8.9,14.4-8.7c5,8.3-26.5,22.9-24,27.2c0,0,28.4-17.7,28.7-17.2c0.4,0.7-31,25.7-28.2,30.4
      c2.4,4.1,20.8-12.7,20.9-12.5c0,0-28.1,25.2-24.8,30.7c1.4,2.4,21.1-15.9,22.5-13.5c3.9,6.4-24.6,21.5-20.4,28.4
      c0.6,1,18.1-14.7,19.7-11.9c0.7,1.2-19.4,18.1-16.8,22.5c1.4,2.4,15.9-11.3,16.7-10c1.7,2.8-10,16.7-9.8,17.2
      c1.2,1.9,9.8-6.7,10.1-6.1c2.8,4.6-11.6,16.9-8.2,22.4c1.2,2,12.2-12.3,14.4-8.7c1.9,3.2-5.9,11.8-4.9,13.5
      c0,0,16.6-12.8,17.8-10.7c2,3.4,0.1,12,1.9,15c7.9,13.1,43.4-38.5,48.9-29.4"/>
  </g>
</svg>